<?xml version="1.0" encoding="UTF-8" standalone="no"?><!DOCTYPE svg PUBLIC "-//W3C//DTD SVG 1.1//EN" "http://www.w3.org/Graphics/SVG/1.1/DTD/svg11.dtd"><!-- Generated by graphviz version 2.40.1 (20161225.0304)
 --><!-- Title: %0 Pages: 1 --><svg xmlns="http://www.w3.org/2000/svg" xmlns:xlink="http://www.w3.org/1999/xlink" width="3574pt" height="692pt" viewBox="0.00 0.00 3573.87 692.00">
<g id="graph0" class="graph" transform="scale(1 1) rotate(0) translate(4 688)">
<title>%0</title>
<polygon fill="#ffffff" stroke="transparent" points="-4,4 -4,-688 3569.8661,-688 3569.8661,4 -4,4"/>
<!-- github.com/beorn7/perks -->
<g id="node1" class="node">
<title>github.com/beorn7/perks</title>
<path fill="#ff40fd" stroke="#000000" d="M2413.0941,-324C2413.0941,-324 2280.3681,-324 2280.3681,-324 2274.3681,-324 2268.3681,-318 2268.3681,-312 2268.3681,-312 2268.3681,-300 2268.3681,-300 2268.3681,-294 2274.3681,-288 2280.3681,-288 2280.3681,-288 2413.0941,-288 2413.0941,-288 2419.0941,-288 2425.0941,-294 2425.0941,-300 2425.0941,-300 2425.0941,-312 2425.0941,-312 2425.0941,-318 2419.0941,-324 2413.0941,-324"/>
<text text-anchor="middle" x="2346.7311" y="-301.8" font-family="Times,serif" font-size="14.00" fill="#000000">github.com/beorn7/perks</text>
</g>
<!-- github.com/cespare/xxhash/v2 -->
<g id="node2" class="node">
<title>github.com/cespare/xxhash/v2</title>
<path fill="#a3ff11" stroke="#000000" d="M2617.9124,-324C2617.9124,-324 2455.5498,-324 2455.5498,-324 2449.5498,-324 2443.5498,-318 2443.5498,-312 2443.5498,-312 2443.5498,-300 2443.5498,-300 2443.5498,-294 2449.5498,-288 2455.5498,-288 2455.5498,-288 2617.9124,-288 2617.9124,-288 2623.9124,-288 2629.9124,-294 2629.9124,-300 2629.9124,-300 2629.9124,-312 2629.9124,-312 2629.9124,-318 2623.9124,-324 2617.9124,-324"/>
<text text-anchor="middle" x="2536.7311" y="-301.8" font-family="Times,serif" font-size="14.00" fill="#000000">github.com/cespare/xxhash/v2</text>
</g>
<!-- github.com/gin&#45;contrib/logger -->
<g id="node3" class="node">
<title>github.com/gin-contrib/logger</title>
<path fill="#ff4880" stroke="#000000" d="M1431.3722,-612C1431.3722,-612 1270.09,-612 1270.09,-612 1264.09,-612 1258.09,-606 1258.09,-600 1258.09,-600 1258.09,-588 1258.09,-588 1258.09,-582 1264.09,-576 1270.09,-576 1270.09,-576 1431.3722,-576 1431.3722,-576 1437.3722,-576 1443.3722,-582 1443.3722,-588 1443.3722,-588 1443.3722,-600 1443.3722,-600 1443.3722,-606 1437.3722,-612 1431.3722,-612"/>
<text text-anchor="middle" x="1350.7311" y="-589.8" font-family="Times,serif" font-size="14.00" fill="#000000">github.com/gin-contrib/logger</text>
</g>
<!-- github.com/gin&#45;gonic/gin -->
<g id="node5" class="node">
<title>github.com/gin-gonic/gin</title>
<path fill="#323bff" stroke="#000000" d="M1576.946,-540C1576.946,-540 1442.5162,-540 1442.5162,-540 1436.5162,-540 1430.5162,-534 1430.5162,-528 1430.5162,-528 1430.5162,-516 1430.5162,-516 1430.5162,-510 1436.5162,-504 1442.5162,-504 1442.5162,-504 1576.946,-504 1576.946,-504 1582.946,-504 1588.946,-510 1588.946,-516 1588.946,-516 1588.946,-528 1588.946,-528 1588.946,-534 1582.946,-540 1576.946,-540"/>
<text text-anchor="middle" x="1509.7311" y="-517.8" font-family="Times,serif" font-size="14.00" fill="#ffffff">github.com/gin-gonic/gin</text>
</g>
<!-- github.com/gin&#45;contrib/logger&#45;&gt;github.com/gin&#45;gonic/gin -->
<g id="edge1" class="edge">
<title>github.com/gin-contrib/logger-&gt;github.com/gin-gonic/gin</title>
<path fill="none" stroke="#000000" d="M1436.8377,-575.8314C1436.8377,-575.8314 1436.8377,-550.4133 1436.8377,-550.4133"/>
<polygon fill="#000000" stroke="#000000" points="1440.3378,-550.4132 1436.8377,-540.4133 1433.3378,-550.4133 1440.3378,-550.4132"/>
</g>
<!-- github.com/mattn/go&#45;isatty -->
<g id="node24" class="node">
<title>github.com/mattn/go-isatty</title>
<path fill="#23ffd3" stroke="#000000" d="M1359.7767,-468C1359.7767,-468 1215.6855,-468 1215.6855,-468 1209.6855,-468 1203.6855,-462 1203.6855,-456 1203.6855,-456 1203.6855,-444 1203.6855,-444 1203.6855,-438 1209.6855,-432 1215.6855,-432 1215.6855,-432 1359.7767,-432 1359.7767,-432 1365.7767,-432 1371.7767,-438 1371.7767,-444 1371.7767,-444 1371.7767,-456 1371.7767,-456 1371.7767,-462 1365.7767,-468 1359.7767,-468"/>
<text text-anchor="middle" x="1287.7311" y="-445.8" font-family="Times,serif" font-size="14.00" fill="#000000">github.com/mattn/go-isatty</text>
</g>
<!-- github.com/gin&#45;contrib/logger&#45;&gt;github.com/mattn/go&#45;isatty -->
<g id="edge2" class="edge">
<title>github.com/gin-contrib/logger-&gt;github.com/mattn/go-isatty</title>
<path fill="none" stroke="#000000" d="M1296.025,-575.7623C1296.025,-575.7623 1296.025,-478.0896 1296.025,-478.0896"/>
<polygon fill="#000000" stroke="#000000" points="1299.5251,-478.0896 1296.025,-468.0896 1292.5251,-478.0897 1299.5251,-478.0896"/>
</g>
<!-- github.com/rs/zerolog -->
<g id="node32" class="node">
<title>github.com/rs/zerolog</title>
<path fill="#ff4788" stroke="#000000" d="M1517.4845,-180C1517.4845,-180 1401.9777,-180 1401.9777,-180 1395.9777,-180 1389.9777,-174 1389.9777,-168 1389.9777,-168 1389.9777,-156 1389.9777,-156 1389.9777,-150 1395.9777,-144 1401.9777,-144 1401.9777,-144 1517.4845,-144 1517.4845,-144 1523.4845,-144 1529.4845,-150 1529.4845,-156 1529.4845,-156 1529.4845,-168 1529.4845,-168 1529.4845,-174 1523.4845,-180 1517.4845,-180"/>
<text text-anchor="middle" x="1459.7311" y="-157.8" font-family="Times,serif" font-size="14.00" fill="#000000">github.com/rs/zerolog</text>
</g>
<!-- github.com/gin&#45;contrib/logger&#45;&gt;github.com/rs/zerolog -->
<g id="edge3" class="edge">
<title>github.com/gin-contrib/logger-&gt;github.com/rs/zerolog</title>
<path fill="none" stroke="#000000" d="M1415.4743,-575.9875C1415.4743,-575.9875 1415.4743,-190.0894 1415.4743,-190.0894"/>
<polygon fill="#000000" stroke="#000000" points="1418.9744,-190.0894 1415.4743,-180.0894 1411.9744,-190.0894 1418.9744,-190.0894"/>
</g>
<!-- github.com/gin&#45;contrib/sse -->
<g id="node4" class="node">
<title>github.com/gin-contrib/sse</title>
<path fill="#52ff16" stroke="#000000" d="M1174.2108,-468C1174.2108,-468 1031.2514,-468 1031.2514,-468 1025.2514,-468 1019.2514,-462 1019.2514,-456 1019.2514,-456 1019.2514,-444 1019.2514,-444 1019.2514,-438 1025.2514,-432 1031.2514,-432 1031.2514,-432 1174.2108,-432 1174.2108,-432 1180.2108,-432 1186.2108,-438 1186.2108,-444 1186.2108,-444 1186.2108,-456 1186.2108,-456 1186.2108,-462 1180.2108,-468 1174.2108,-468"/>
<text text-anchor="middle" x="1102.7311" y="-445.8" font-family="Times,serif" font-size="14.00" fill="#000000">github.com/gin-contrib/sse</text>
</g>
<!-- github.com/gin&#45;gonic/gin&#45;&gt;github.com/gin&#45;contrib/sse -->
<g id="edge4" class="edge">
<title>github.com/gin-gonic/gin-&gt;github.com/gin-contrib/sse</title>
<path fill="none" stroke="#000000" d="M1430.2271,-528C1319.0179,-528 1130.4776,-528 1130.4776,-528 1130.4776,-528 1130.4776,-478.0908 1130.4776,-478.0908"/>
<polygon fill="#000000" stroke="#000000" points="1133.9777,-478.0908 1130.4776,-468.0908 1126.9777,-478.0909 1133.9777,-478.0908"/>
</g>
<!-- github.com/go&#45;playground/validator/v10 -->
<g id="node8" class="node">
<title>github.com/go-playground/validator/v10</title>
<path fill="#20ff99" stroke="#000000" d="M2153.9774,-468C2153.9774,-468 1933.4848,-468 1933.4848,-468 1927.4848,-468 1921.4848,-462 1921.4848,-456 1921.4848,-456 1921.4848,-444 1921.4848,-444 1921.4848,-438 1927.4848,-432 1933.4848,-432 1933.4848,-432 2153.9774,-432 2153.9774,-432 2159.9774,-432 2165.9774,-438 2165.9774,-444 2165.9774,-444 2165.9774,-456 2165.9774,-456 2165.9774,-462 2159.9774,-468 2153.9774,-468"/>
<text text-anchor="middle" x="2043.7311" y="-445.8" font-family="Times,serif" font-size="14.00" fill="#000000">github.com/go-playground/validator/v10</text>
</g>
<!-- github.com/gin&#45;gonic/gin&#45;&gt;github.com/go&#45;playground/validator/v10 -->
<g id="edge5" class="edge">
<title>github.com/gin-gonic/gin-&gt;github.com/go-playground/validator/v10</title>
<path fill="none" stroke="#000000" d="M1589.1618,-525C1724.2576,-525 1984.2915,-525 1984.2915,-525 1984.2915,-525 1984.2915,-478.1554 1984.2915,-478.1554"/>
<polygon fill="#000000" stroke="#000000" points="1987.7916,-478.1554 1984.2915,-468.1554 1980.7916,-478.1554 1987.7916,-478.1554"/>
</g>
<!-- github.com/golang/protobuf -->
<g id="node9" class="node">
<title>github.com/golang/protobuf</title>
<path fill="#cfff0f" stroke="#000000" d="M3113.7164,-180C3113.7164,-180 2963.7458,-180 2963.7458,-180 2957.7458,-180 2951.7458,-174 2951.7458,-168 2951.7458,-168 2951.7458,-156 2951.7458,-156 2951.7458,-150 2957.7458,-144 2963.7458,-144 2963.7458,-144 3113.7164,-144 3113.7164,-144 3119.7164,-144 3125.7164,-150 3125.7164,-156 3125.7164,-156 3125.7164,-168 3125.7164,-168 3125.7164,-174 3119.7164,-180 3113.7164,-180"/>
<text text-anchor="middle" x="3038.7311" y="-157.8" font-family="Times,serif" font-size="14.00" fill="#000000">github.com/golang/protobuf</text>
</g>
<!-- github.com/gin&#45;gonic/gin&#45;&gt;github.com/golang/protobuf -->
<g id="edge6" class="edge">
<title>github.com/gin-gonic/gin-&gt;github.com/golang/protobuf</title>
<path fill="none" stroke="#000000" d="M1589.0369,-511C1614.6948,-511 1636.6627,-511 1636.6627,-511 1636.6627,-511 1636.6627,-156 1636.6627,-156 1636.6627,-156 2941.8195,-156 2941.8195,-156"/>
<polygon fill="#000000" stroke="#000000" points="2941.8196,-159.5001 2951.8195,-156 2941.8195,-152.5001 2941.8196,-159.5001"/>
</g>
<!-- github.com/gin&#45;gonic/gin&#45;&gt;github.com/mattn/go&#45;isatty -->
<g id="edge7" class="edge">
<title>github.com/gin-gonic/gin-&gt;github.com/mattn/go-isatty</title>
<path fill="none" stroke="#000000" d="M1430.2987,-516C1383.6993,-516 1333.8895,-516 1333.8895,-516 1333.8895,-516 1333.8895,-478.0348 1333.8895,-478.0348"/>
<polygon fill="#000000" stroke="#000000" points="1337.3896,-478.0348 1333.8895,-468.0348 1330.3896,-478.0348 1337.3896,-478.0348"/>
</g>
<!-- github.com/ugorji/go/codec -->
<g id="node34" class="node">
<title>github.com/ugorji/go/codec</title>
<path fill="#2abbff" stroke="#000000" d="M1587.375,-468C1587.375,-468 1440.0872,-468 1440.0872,-468 1434.0872,-468 1428.0872,-462 1428.0872,-456 1428.0872,-456 1428.0872,-444 1428.0872,-444 1428.0872,-438 1434.0872,-432 1440.0872,-432 1440.0872,-432 1587.375,-432 1587.375,-432 1593.375,-432 1599.375,-438 1599.375,-444 1599.375,-444 1599.375,-456 1599.375,-456 1599.375,-462 1593.375,-468 1587.375,-468"/>
<text text-anchor="middle" x="1513.7311" y="-445.8" font-family="Times,serif" font-size="14.00" fill="#000000">github.com/ugorji/go/codec</text>
</g>
<!-- github.com/gin&#45;gonic/gin&#45;&gt;github.com/ugorji/go/codec -->
<g id="edge8" class="edge">
<title>github.com/gin-gonic/gin-&gt;github.com/ugorji/go/codec</title>
<path fill="none" stroke="#000000" d="M1509.7311,-503.8314C1509.7311,-503.8314 1509.7311,-478.4133 1509.7311,-478.4133"/>
<polygon fill="#000000" stroke="#000000" points="1513.2312,-478.4132 1509.7311,-468.4133 1506.2312,-478.4133 1513.2312,-478.4132"/>
</g>
<!-- gopkg.in/yaml.v2 -->
<g id="node39" class="node">
<title>gopkg.in/yaml.v2</title>
<path fill="#ff4978" stroke="#000000" d="M1758.0083,-252C1758.0083,-252 1667.4539,-252 1667.4539,-252 1661.4539,-252 1655.4539,-246 1655.4539,-240 1655.4539,-240 1655.4539,-228 1655.4539,-228 1655.4539,-222 1661.4539,-216 1667.4539,-216 1667.4539,-216 1758.0083,-216 1758.0083,-216 1764.0083,-216 1770.0083,-222 1770.0083,-228 1770.0083,-228 1770.0083,-240 1770.0083,-240 1770.0083,-246 1764.0083,-252 1758.0083,-252"/>
<text text-anchor="middle" x="1712.7311" y="-229.8" font-family="Times,serif" font-size="14.00" fill="#000000">gopkg.in/yaml.v2</text>
</g>
<!-- github.com/gin&#45;gonic/gin&#45;&gt;gopkg.in/yaml.v2 -->
<g id="edge9" class="edge">
<title>github.com/gin-gonic/gin-&gt;gopkg.in/yaml.v2</title>
<path fill="none" stroke="#000000" d="M1589.0884,-518C1646.024,-518 1712.7311,-518 1712.7311,-518 1712.7311,-518 1712.7311,-262.1975 1712.7311,-262.1975"/>
<polygon fill="#000000" stroke="#000000" points="1716.2312,-262.1975 1712.7311,-252.1975 1709.2312,-262.1975 1716.2312,-262.1975"/>
</g>
<!-- github.com/go&#45;playground/locales -->
<g id="node6" class="node">
<title>github.com/go-playground/locales</title>
<path fill="#2e77ff" stroke="#000000" d="M2224.1952,-324C2224.1952,-324 2039.267,-324 2039.267,-324 2033.267,-324 2027.267,-318 2027.267,-312 2027.267,-312 2027.267,-300 2027.267,-300 2027.267,-294 2033.267,-288 2039.267,-288 2039.267,-288 2224.1952,-288 2224.1952,-288 2230.1952,-288 2236.1952,-294 2236.1952,-300 2236.1952,-300 2236.1952,-312 2236.1952,-312 2236.1952,-318 2230.1952,-324 2224.1952,-324"/>
<text text-anchor="middle" x="2131.7311" y="-301.8" font-family="Times,serif" font-size="14.00" fill="#ffffff">github.com/go-playground/locales</text>
</g>
<!-- golang.org/x/text -->
<g id="node37" class="node">
<title>golang.org/x/text</title>
<path fill="#24ffe2" stroke="#000000" d="M1917.7739,-36C1917.7739,-36 1829.6883,-36 1829.6883,-36 1823.6883,-36 1817.6883,-30 1817.6883,-24 1817.6883,-24 1817.6883,-12 1817.6883,-12 1817.6883,-6 1823.6883,0 1829.6883,0 1829.6883,0 1917.7739,0 1917.7739,0 1923.7739,0 1929.7739,-6 1929.7739,-12 1929.7739,-12 1929.7739,-24 1929.7739,-24 1929.7739,-30 1923.7739,-36 1917.7739,-36"/>
<text text-anchor="middle" x="1873.7311" y="-13.8" font-family="Times,serif" font-size="14.00" fill="#000000">golang.org/x/text</text>
</g>
<!-- github.com/go&#45;playground/locales&#45;&gt;golang.org/x/text -->
<g id="edge10" class="edge">
<title>github.com/go-playground/locales-&gt;golang.org/x/text</title>
<path fill="none" stroke="#000000" d="M2027.2856,-295C1976.8213,-295 1927.0377,-295 1927.0377,-295 1927.0377,-295 1927.0377,-46.1747 1927.0377,-46.1747"/>
<polygon fill="#000000" stroke="#000000" points="1930.5378,-46.1747 1927.0377,-36.1747 1923.5378,-46.1748 1930.5378,-46.1747"/>
</g>
<!-- github.com/go&#45;playground/universal&#45;translator -->
<g id="node7" class="node">
<title>github.com/go-playground/universal-translator</title>
<path fill="#2c90ff" stroke="#000000" d="M2244.1684,-396C2244.1684,-396 1989.2938,-396 1989.2938,-396 1983.2938,-396 1977.2938,-390 1977.2938,-384 1977.2938,-384 1977.2938,-372 1977.2938,-372 1977.2938,-366 1983.2938,-360 1989.2938,-360 1989.2938,-360 2244.1684,-360 2244.1684,-360 2250.1684,-360 2256.1684,-366 2256.1684,-372 2256.1684,-372 2256.1684,-384 2256.1684,-384 2256.1684,-390 2250.1684,-396 2244.1684,-396"/>
<text text-anchor="middle" x="2116.7311" y="-373.8" font-family="Times,serif" font-size="14.00" fill="#000000">github.com/go-playground/universal-translator</text>
</g>
<!-- github.com/go&#45;playground/universal&#45;translator&#45;&gt;github.com/go&#45;playground/locales -->
<g id="edge11" class="edge">
<title>github.com/go-playground/universal-translator-&gt;github.com/go-playground/locales</title>
<path fill="none" stroke="#000000" d="M2131.7311,-359.8314C2131.7311,-359.8314 2131.7311,-334.4133 2131.7311,-334.4133"/>
<polygon fill="#000000" stroke="#000000" points="2135.2312,-334.4132 2131.7311,-324.4133 2128.2312,-334.4133 2135.2312,-334.4132"/>
</g>
<!-- github.com/go&#45;playground/validator/v10&#45;&gt;github.com/go&#45;playground/locales -->
<g id="edge12" class="edge">
<title>github.com/go-playground/validator/v10-&gt;github.com/go-playground/locales</title>
<path fill="none" stroke="#000000" d="M1953.6326,-431.8554C1953.6326,-393.7735 1953.6326,-309 1953.6326,-309 1953.6326,-309 2017.3576,-309 2017.3576,-309"/>
<polygon fill="#000000" stroke="#000000" points="2017.3577,-312.5001 2027.3576,-309 2017.3576,-305.5001 2017.3577,-312.5001"/>
</g>
<!-- github.com/go&#45;playground/validator/v10&#45;&gt;github.com/go&#45;playground/universal&#45;translator -->
<g id="edge13" class="edge">
<title>github.com/go-playground/validator/v10-&gt;github.com/go-playground/universal-translator</title>
<path fill="none" stroke="#000000" d="M2071.6834,-431.8314C2071.6834,-431.8314 2071.6834,-406.4133 2071.6834,-406.4133"/>
<polygon fill="#000000" stroke="#000000" points="2075.1835,-406.4132 2071.6834,-396.4133 2068.1835,-406.4133 2075.1835,-406.4132"/>
</g>
<!-- github.com/leodido/go&#45;urn -->
<g id="node23" class="node">
<title>github.com/leodido/go-urn</title>
<path fill="#9639ff" stroke="#000000" d="M2428.2164,-396C2428.2164,-396 2285.2458,-396 2285.2458,-396 2279.2458,-396 2273.2458,-390 2273.2458,-384 2273.2458,-384 2273.2458,-372 2273.2458,-372 2273.2458,-366 2279.2458,-360 2285.2458,-360 2285.2458,-360 2428.2164,-360 2428.2164,-360 2434.2164,-360 2440.2164,-366 2440.2164,-372 2440.2164,-372 2440.2164,-384 2440.2164,-384 2440.2164,-390 2434.2164,-396 2428.2164,-396"/>
<text text-anchor="middle" x="2356.7311" y="-373.8" font-family="Times,serif" font-size="14.00" fill="#ffffff">github.com/leodido/go-urn</text>
</g>
<!-- github.com/go&#45;playground/validator/v10&#45;&gt;github.com/leodido/go&#45;urn -->
<g id="edge14" class="edge">
<title>github.com/go-playground/validator/v10-&gt;github.com/leodido/go-urn</title>
<path fill="none" stroke="#000000" d="M2165.9452,-460C2243.3676,-460 2328.9837,-460 2328.9837,-460 2328.9837,-460 2328.9837,-406.1985 2328.9837,-406.1985"/>
<polygon fill="#000000" stroke="#000000" points="2332.4838,-406.1984 2328.9837,-396.1985 2325.4838,-406.1985 2332.4838,-406.1984"/>
</g>
<!-- golang.org/x/crypto -->
<g id="node35" class="node">
<title>golang.org/x/crypto</title>
<path fill="#ff5604" stroke="#000000" d="M1834.044,-108C1834.044,-108 1731.4182,-108 1731.4182,-108 1725.4182,-108 1719.4182,-102 1719.4182,-96 1719.4182,-96 1719.4182,-84 1719.4182,-84 1719.4182,-78 1725.4182,-72 1731.4182,-72 1731.4182,-72 1834.044,-72 1834.044,-72 1840.044,-72 1846.044,-78 1846.044,-84 1846.044,-84 1846.044,-96 1846.044,-96 1846.044,-102 1840.044,-108 1834.044,-108"/>
<text text-anchor="middle" x="1782.7311" y="-85.8" font-family="Times,serif" font-size="14.00" fill="#ffffff">golang.org/x/crypto</text>
</g>
<!-- github.com/go&#45;playground/validator/v10&#45;&gt;golang.org/x/crypto -->
<g id="edge15" class="edge">
<title>github.com/go-playground/validator/v10-&gt;golang.org/x/crypto</title>
<path fill="none" stroke="#000000" d="M1924.3228,-431.9492C1924.3228,-358.5015 1924.3228,-86 1924.3228,-86 1924.3228,-86 1856.0725,-86 1856.0725,-86"/>
<polygon fill="#000000" stroke="#000000" points="1856.0726,-82.5001 1846.0725,-86 1856.0725,-89.5001 1856.0726,-82.5001"/>
</g>
<!-- google.golang.org/protobuf -->
<g id="node38" class="node">
<title>google.golang.org/protobuf</title>
<path fill="#ff43cc" stroke="#000000" d="M3111.7045,-108C3111.7045,-108 2965.7577,-108 2965.7577,-108 2959.7577,-108 2953.7577,-102 2953.7577,-96 2953.7577,-96 2953.7577,-84 2953.7577,-84 2953.7577,-78 2959.7577,-72 2965.7577,-72 2965.7577,-72 3111.7045,-72 3111.7045,-72 3117.7045,-72 3123.7045,-78 3123.7045,-84 3123.7045,-84 3123.7045,-96 3123.7045,-96 3123.7045,-102 3117.7045,-108 3111.7045,-108"/>
<text text-anchor="middle" x="3038.7311" y="-85.8" font-family="Times,serif" font-size="14.00" fill="#000000">google.golang.org/protobuf</text>
</g>
<!-- github.com/golang/protobuf&#45;&gt;google.golang.org/protobuf -->
<g id="edge16" class="edge">
<title>github.com/golang/protobuf-&gt;google.golang.org/protobuf</title>
<path fill="none" stroke="#000000" d="M3067.06,-143.8314C3067.06,-143.8314 3067.06,-118.4133 3067.06,-118.4133"/>
<polygon fill="#000000" stroke="#000000" points="3070.5601,-118.4132 3067.06,-108.4133 3063.5601,-118.4133 3070.5601,-118.4132"/>
</g>
<!-- github.com/goph/emperror -->
<g id="node10" class="node">
<title>github.com/goph/emperror</title>
<path fill="#ff44bb" stroke="#000000" d="M1182.201,-252C1182.201,-252 1039.2612,-252 1039.2612,-252 1033.2612,-252 1027.2612,-246 1027.2612,-240 1027.2612,-240 1027.2612,-228 1027.2612,-228 1027.2612,-222 1033.2612,-216 1039.2612,-216 1039.2612,-216 1182.201,-216 1182.201,-216 1188.201,-216 1194.201,-222 1194.201,-228 1194.201,-228 1194.201,-240 1194.201,-240 1194.201,-246 1188.201,-252 1182.201,-252"/>
<text text-anchor="middle" x="1110.7311" y="-229.8" font-family="Times,serif" font-size="14.00" fill="#000000">github.com/goph/emperror</text>
</g>
<!-- github.com/pkg/errors -->
<g id="node28" class="node">
<title>github.com/pkg/errors</title>
<path fill="#29caff" stroke="#000000" d="M1376.0398,-108C1376.0398,-108 1259.4224,-108 1259.4224,-108 1253.4224,-108 1247.4224,-102 1247.4224,-96 1247.4224,-96 1247.4224,-84 1247.4224,-84 1247.4224,-78 1253.4224,-72 1259.4224,-72 1259.4224,-72 1376.0398,-72 1376.0398,-72 1382.0398,-72 1388.0398,-78 1388.0398,-84 1388.0398,-84 1388.0398,-96 1388.0398,-96 1388.0398,-102 1382.0398,-108 1376.0398,-108"/>
<text text-anchor="middle" x="1317.7311" y="-85.8" font-family="Times,serif" font-size="14.00" fill="#000000">github.com/pkg/errors</text>
</g>
<!-- github.com/goph/emperror&#45;&gt;github.com/pkg/errors -->
<g id="edge17" class="edge">
<title>github.com/goph/emperror-&gt;github.com/pkg/errors</title>
<path fill="none" stroke="#000000" d="M1194.0317,-234C1240.3767,-234 1288.8025,-234 1288.8025,-234 1288.8025,-234 1288.8025,-118.2377 1288.8025,-118.2377"/>
<polygon fill="#000000" stroke="#000000" points="1292.3026,-118.2377 1288.8025,-108.2377 1285.3026,-118.2377 1292.3026,-118.2377"/>
</g>
<!-- github.com/sirupsen/logrus -->
<g id="node33" class="node">
<title>github.com/sirupsen/logrus</title>
<path fill="#2d8bff" stroke="#000000" d="M1024.0496,-180C1024.0496,-180 879.4126,-180 879.4126,-180 873.4126,-180 867.4126,-174 867.4126,-168 867.4126,-168 867.4126,-156 867.4126,-156 867.4126,-150 873.4126,-144 879.4126,-144 879.4126,-144 1024.0496,-144 1024.0496,-144 1030.0496,-144 1036.0496,-150 1036.0496,-156 1036.0496,-156 1036.0496,-168 1036.0496,-168 1036.0496,-174 1030.0496,-180 1024.0496,-180"/>
<text text-anchor="middle" x="951.7311" y="-157.8" font-family="Times,serif" font-size="14.00" fill="#000000">github.com/sirupsen/logrus</text>
</g>
<!-- github.com/goph/emperror&#45;&gt;github.com/sirupsen/logrus -->
<g id="edge18" class="edge">
<title>github.com/goph/emperror-&gt;github.com/sirupsen/logrus</title>
<path fill="none" stroke="#000000" d="M1031.8184,-215.8314C1031.8184,-215.8314 1031.8184,-190.4133 1031.8184,-190.4133"/>
<polygon fill="#000000" stroke="#000000" points="1035.3185,-190.4132 1031.8184,-180.4133 1028.3185,-190.4133 1035.3185,-190.4132"/>
</g>
<!-- github.com/jackc/chunkreader/v2 -->
<g id="node11" class="node">
<title>github.com/jackc/chunkreader/v2</title>
<path fill="#e0ff0e" stroke="#000000" d="M815.5034,-36C815.5034,-36 635.9588,-36 635.9588,-36 629.9588,-36 623.9588,-30 623.9588,-24 623.9588,-24 623.9588,-12 623.9588,-12 623.9588,-6 629.9588,0 635.9588,0 635.9588,0 815.5034,0 815.5034,0 821.5034,0 827.5034,-6 827.5034,-12 827.5034,-12 827.5034,-24 827.5034,-24 827.5034,-30 821.5034,-36 815.5034,-36"/>
<text text-anchor="middle" x="725.7311" y="-13.8" font-family="Times,serif" font-size="14.00" fill="#000000">github.com/jackc/chunkreader/v2</text>
</g>
<!-- github.com/jackc/pgconn -->
<g id="node12" class="node">
<title>github.com/jackc/pgconn</title>
<path fill="#ff1901" stroke="#000000" d="M723.6477,-180C723.6477,-180 589.8145,-180 589.8145,-180 583.8145,-180 577.8145,-174 577.8145,-168 577.8145,-168 577.8145,-156 577.8145,-156 577.8145,-150 583.8145,-144 589.8145,-144 589.8145,-144 723.6477,-144 723.6477,-144 729.6477,-144 735.6477,-150 735.6477,-156 735.6477,-156 735.6477,-168 735.6477,-168 735.6477,-174 729.6477,-180 723.6477,-180"/>
<text text-anchor="middle" x="656.7311" y="-157.8" font-family="Times,serif" font-size="14.00" fill="#ffffff">github.com/jackc/pgconn</text>
</g>
<!-- github.com/jackc/pgconn&#45;&gt;github.com/jackc/chunkreader/v2 -->
<g id="edge19" class="edge">
<title>github.com/jackc/pgconn-&gt;github.com/jackc/chunkreader/v2</title>
<path fill="none" stroke="#000000" d="M678.3996,-143.7623C678.3996,-143.7623 678.3996,-46.0896 678.3996,-46.0896"/>
<polygon fill="#000000" stroke="#000000" points="681.8997,-46.0896 678.3996,-36.0896 674.8997,-46.0897 681.8997,-46.0896"/>
</g>
<!-- github.com/jackc/pgio -->
<g id="node13" class="node">
<title>github.com/jackc/pgio</title>
<path fill="#dc3dff" stroke="#000000" d="M298.3243,-36C298.3243,-36 181.1379,-36 181.1379,-36 175.1379,-36 169.1379,-30 169.1379,-24 169.1379,-24 169.1379,-12 169.1379,-12 169.1379,-6 175.1379,0 181.1379,0 181.1379,0 298.3243,0 298.3243,0 304.3243,0 310.3243,-6 310.3243,-12 310.3243,-12 310.3243,-24 310.3243,-24 310.3243,-30 304.3243,-36 298.3243,-36"/>
<text text-anchor="middle" x="239.7311" y="-13.8" font-family="Times,serif" font-size="14.00" fill="#000000">github.com/jackc/pgio</text>
</g>
<!-- github.com/jackc/pgconn&#45;&gt;github.com/jackc/pgio -->
<g id="edge20" class="edge">
<title>github.com/jackc/pgconn-&gt;github.com/jackc/pgio</title>
<path fill="none" stroke="#000000" d="M577.5317,-162C458.8095,-162 248.4781,-162 248.4781,-162 248.4781,-162 248.4781,-46.2377 248.4781,-46.2377"/>
<polygon fill="#000000" stroke="#000000" points="251.9782,-46.2377 248.4781,-36.2377 244.9782,-46.2377 251.9782,-46.2377"/>
</g>
<!-- github.com/jackc/pgpassfile -->
<g id="node14" class="node">
<title>github.com/jackc/pgpassfile</title>
<path fill="#a3ff11" stroke="#000000" d="M161.6939,-108C161.6939,-108 11.7683,-108 11.7683,-108 5.7683,-108 -.2317,-102 -.2317,-96 -.2317,-96 -.2317,-84 -.2317,-84 -.2317,-78 5.7683,-72 11.7683,-72 11.7683,-72 161.6939,-72 161.6939,-72 167.6939,-72 173.6939,-78 173.6939,-84 173.6939,-84 173.6939,-96 173.6939,-96 173.6939,-102 167.6939,-108 161.6939,-108"/>
<text text-anchor="middle" x="86.7311" y="-85.8" font-family="Times,serif" font-size="14.00" fill="#000000">github.com/jackc/pgpassfile</text>
</g>
<!-- github.com/jackc/pgconn&#45;&gt;github.com/jackc/pgpassfile -->
<g id="edge21" class="edge">
<title>github.com/jackc/pgconn-&gt;github.com/jackc/pgpassfile</title>
<path fill="none" stroke="#000000" d="M577.7625,-171C427.5808,-171 115.6415,-171 115.6415,-171 115.6415,-171 115.6415,-118.3802 115.6415,-118.3802"/>
<polygon fill="#000000" stroke="#000000" points="119.1416,-118.3801 115.6415,-108.3802 112.1416,-118.3802 119.1416,-118.3801"/>
</g>
<!-- github.com/jackc/pgproto3/v2 -->
<g id="node15" class="node">
<title>github.com/jackc/pgproto3/v2</title>
<path fill="#ff5003" stroke="#000000" d="M647.375,-108C647.375,-108 486.0872,-108 486.0872,-108 480.0872,-108 474.0872,-102 474.0872,-96 474.0872,-96 474.0872,-84 474.0872,-84 474.0872,-78 480.0872,-72 486.0872,-72 486.0872,-72 647.375,-72 647.375,-72 653.375,-72 659.375,-78 659.375,-84 659.375,-84 659.375,-96 659.375,-96 659.375,-102 653.375,-108 647.375,-108"/>
<text text-anchor="middle" x="566.7311" y="-85.8" font-family="Times,serif" font-size="14.00" fill="#ffffff">github.com/jackc/pgproto3/v2</text>
</g>
<!-- github.com/jackc/pgconn&#45;&gt;github.com/jackc/pgproto3/v2 -->
<g id="edge22" class="edge">
<title>github.com/jackc/pgconn-&gt;github.com/jackc/pgproto3/v2</title>
<path fill="none" stroke="#000000" d="M618.5379,-143.8314C618.5379,-143.8314 618.5379,-118.4133 618.5379,-118.4133"/>
<polygon fill="#000000" stroke="#000000" points="622.038,-118.4132 618.5379,-108.4133 615.038,-118.4133 622.038,-118.4132"/>
</g>
<!-- github.com/jackc/pgservicefile -->
<g id="node16" class="node">
<title>github.com/jackc/pgservicefile</title>
<path fill="#2ab1ff" stroke="#000000" d="M444.2291,-108C444.2291,-108 279.2331,-108 279.2331,-108 273.2331,-108 267.2331,-102 267.2331,-96 267.2331,-96 267.2331,-84 267.2331,-84 267.2331,-78 273.2331,-72 279.2331,-72 279.2331,-72 444.2291,-72 444.2291,-72 450.2291,-72 456.2291,-78 456.2291,-84 456.2291,-84 456.2291,-96 456.2291,-96 456.2291,-102 450.2291,-108 444.2291,-108"/>
<text text-anchor="middle" x="361.7311" y="-85.8" font-family="Times,serif" font-size="14.00" fill="#000000">github.com/jackc/pgservicefile</text>
</g>
<!-- github.com/jackc/pgconn&#45;&gt;github.com/jackc/pgservicefile -->
<g id="edge23" class="edge">
<title>github.com/jackc/pgconn-&gt;github.com/jackc/pgservicefile</title>
<path fill="none" stroke="#000000" d="M577.6723,-153C500.0566,-153 393.2308,-153 393.2308,-153 393.2308,-153 393.2308,-118.2222 393.2308,-118.2222"/>
<polygon fill="#000000" stroke="#000000" points="396.7309,-118.2222 393.2308,-108.2222 389.7309,-118.2222 396.7309,-118.2222"/>
</g>
<!-- github.com/jackc/pgconn&#45;&gt;golang.org/x/crypto -->
<g id="edge24" class="edge">
<title>github.com/jackc/pgconn-&gt;golang.org/x/crypto</title>
<path fill="none" stroke="#000000" d="M716.5928,-143.5782C716.5928,-134.7209 716.5928,-126 716.5928,-126 716.5928,-126 1736.2563,-126 1736.2563,-126 1736.2563,-126 1736.2563,-118.4218 1736.2563,-118.4218"/>
<polygon fill="#000000" stroke="#000000" points="1739.7564,-118.4218 1736.2563,-108.4218 1732.7564,-118.4219 1739.7564,-118.4218"/>
</g>
<!-- github.com/jackc/pgconn&#45;&gt;golang.org/x/text -->
<g id="edge25" class="edge">
<title>github.com/jackc/pgconn-&gt;golang.org/x/text</title>
<path fill="none" stroke="#000000" d="M697.4962,-143.6793C697.4962,-112.8664 697.4962,-54 697.4962,-54 697.4962,-54 1827.1856,-54 1827.1856,-54 1827.1856,-54 1827.1856,-46.4218 1827.1856,-46.4218"/>
<polygon fill="#000000" stroke="#000000" points="1830.6857,-46.4218 1827.1856,-36.4218 1823.6857,-46.4219 1830.6857,-46.4218"/>
</g>
<!-- github.com/jackc/pgproto3/v2&#45;&gt;github.com/jackc/chunkreader/v2 -->
<g id="edge26" class="edge">
<title>github.com/jackc/pgproto3/v2-&gt;github.com/jackc/chunkreader/v2</title>
<path fill="none" stroke="#000000" d="M641.574,-71.8314C641.574,-71.8314 641.574,-46.4133 641.574,-46.4133"/>
<polygon fill="#000000" stroke="#000000" points="645.0741,-46.4132 641.574,-36.4133 638.0741,-46.4133 645.0741,-46.4132"/>
</g>
<!-- github.com/jackc/pgproto3/v2&#45;&gt;github.com/jackc/pgio -->
<g id="edge27" class="edge">
<title>github.com/jackc/pgproto3/v2-&gt;github.com/jackc/pgio</title>
<path fill="none" stroke="#000000" d="M549.0021,-71.8314C549.0021,-50.502 549.0021,-18 549.0021,-18 549.0021,-18 320.6841,-18 320.6841,-18"/>
<polygon fill="#000000" stroke="#000000" points="320.6841,-14.5001 310.6841,-18 320.6841,-21.5001 320.6841,-14.5001"/>
</g>
<!-- github.com/jackc/pgtype -->
<g id="node17" class="node">
<title>github.com/jackc/pgtype</title>
<path fill="#a439ff" stroke="#000000" d="M724.0384,-468C724.0384,-468 593.4238,-468 593.4238,-468 587.4238,-468 581.4238,-462 581.4238,-456 581.4238,-456 581.4238,-444 581.4238,-444 581.4238,-438 587.4238,-432 593.4238,-432 593.4238,-432 724.0384,-432 724.0384,-432 730.0384,-432 736.0384,-438 736.0384,-444 736.0384,-444 736.0384,-456 736.0384,-456 736.0384,-462 730.0384,-468 724.0384,-468"/>
<text text-anchor="middle" x="658.7311" y="-445.8" font-family="Times,serif" font-size="14.00" fill="#ffffff">github.com/jackc/pgtype</text>
</g>
<!-- github.com/jackc/pgtype&#45;&gt;github.com/jackc/pgconn -->
<g id="edge28" class="edge">
<title>github.com/jackc/pgtype-&gt;github.com/jackc/pgconn</title>
<path fill="none" stroke="#000000" d="M716.6084,-431.9843C716.6084,-431.9843 716.6084,-190.0089 716.6084,-190.0089"/>
<polygon fill="#000000" stroke="#000000" points="720.1085,-190.0088 716.6084,-180.0089 713.1085,-190.0089 720.1085,-190.0088"/>
</g>
<!-- github.com/jackc/pgtype&#45;&gt;github.com/jackc/pgio -->
<g id="edge29" class="edge">
<title>github.com/jackc/pgtype-&gt;github.com/jackc/pgio</title>
<path fill="none" stroke="#000000" d="M581.2483,-450C453.0933,-450 210.9702,-450 210.9702,-450 210.9702,-450 210.9702,-46.0125 210.9702,-46.0125"/>
<polygon fill="#000000" stroke="#000000" points="214.4703,-46.0125 210.9702,-36.0125 207.4703,-46.0125 214.4703,-46.0125"/>
</g>
<!-- github.com/jackc/pgx/v4 -->
<g id="node18" class="node">
<title>github.com/jackc/pgx/v4</title>
<path fill="#2d81ff" stroke="#000000" d="M685.3242,-396C685.3242,-396 554.138,-396 554.138,-396 548.138,-396 542.138,-390 542.138,-384 542.138,-384 542.138,-372 542.138,-372 542.138,-366 548.138,-360 554.138,-360 554.138,-360 685.3242,-360 685.3242,-360 691.3242,-360 697.3242,-366 697.3242,-372 697.3242,-372 697.3242,-384 697.3242,-384 697.3242,-390 691.3242,-396 685.3242,-396"/>
<text text-anchor="middle" x="619.7311" y="-373.8" font-family="Times,serif" font-size="14.00" fill="#000000">github.com/jackc/pgx/v4</text>
</g>
<!-- github.com/jackc/pgtype&#45;&gt;github.com/jackc/pgx/v4 -->
<g id="edge30" class="edge">
<title>github.com/jackc/pgtype-&gt;github.com/jackc/pgx/v4</title>
<path fill="none" stroke="#000000" d="M620.0608,-431.8314C620.0608,-431.8314 620.0608,-406.4133 620.0608,-406.4133"/>
<polygon fill="#000000" stroke="#000000" points="623.5609,-406.4132 620.0608,-396.4133 616.5609,-406.4133 623.5609,-406.4132"/>
</g>
<!-- github.com/jackc/pgx/v4&#45;&gt;github.com/jackc/pgconn -->
<g id="edge31" class="edge">
<title>github.com/jackc/pgx/v4-&gt;github.com/jackc/pgconn</title>
<path fill="none" stroke="#000000" d="M637.6501,-359.9555C637.6501,-359.9555 637.6501,-190.1451 637.6501,-190.1451"/>
<polygon fill="#000000" stroke="#000000" points="641.1502,-190.145 637.6501,-180.1451 634.1502,-190.1451 641.1502,-190.145"/>
</g>
<!-- github.com/jackc/pgx/v4&#45;&gt;github.com/jackc/pgio -->
<g id="edge32" class="edge">
<title>github.com/jackc/pgx/v4-&gt;github.com/jackc/pgio</title>
<path fill="none" stroke="#000000" d="M541.7447,-378C427.9308,-378 229.7241,-378 229.7241,-378 229.7241,-378 229.7241,-46.3474 229.7241,-46.3474"/>
<polygon fill="#000000" stroke="#000000" points="233.2242,-46.3473 229.7241,-36.3474 226.2242,-46.3474 233.2242,-46.3473"/>
</g>
<!-- github.com/jackc/pgx/v4&#45;&gt;github.com/jackc/pgproto3/v2 -->
<g id="edge33" class="edge">
<title>github.com/jackc/pgx/v4-&gt;github.com/jackc/pgproto3/v2</title>
<path fill="none" stroke="#000000" d="M559.8538,-359.9843C559.8538,-359.9843 559.8538,-118.0089 559.8538,-118.0089"/>
<polygon fill="#000000" stroke="#000000" points="563.3539,-118.0088 559.8538,-108.0089 556.3539,-118.0089 563.3539,-118.0088"/>
</g>
<!-- github.com/jackc/pgx/v4&#45;&gt;github.com/jackc/pgtype -->
<g id="edge34" class="edge">
<title>github.com/jackc/pgx/v4-&gt;github.com/jackc/pgtype</title>
<path fill="none" stroke="#000000" d="M658.7941,-396.1686C658.7941,-396.1686 658.7941,-421.5867 658.7941,-421.5867"/>
<polygon fill="#000000" stroke="#000000" points="655.2942,-421.5867 658.7941,-431.5867 662.2942,-421.5868 655.2942,-421.5867"/>
</g>
<!-- github.com/jackc/pgx/v4&#45;&gt;github.com/rs/zerolog -->
<g id="edge35" class="edge">
<title>github.com/jackc/pgx/v4-&gt;github.com/rs/zerolog</title>
<path fill="none" stroke="#000000" d="M697.6765,-378C895.7419,-378 1402.7894,-378 1402.7894,-378 1402.7894,-378 1402.7894,-190.0445 1402.7894,-190.0445"/>
<polygon fill="#000000" stroke="#000000" points="1406.2895,-190.0445 1402.7894,-180.0445 1399.2895,-190.0446 1406.2895,-190.0445"/>
</g>
<!-- github.com/jackc/pgx/v4&#45;&gt;github.com/sirupsen/logrus -->
<g id="edge36" class="edge">
<title>github.com/jackc/pgx/v4-&gt;github.com/sirupsen/logrus</title>
<path fill="none" stroke="#000000" d="M697.5211,-369C774.2661,-369 880.1784,-369 880.1784,-369 880.1784,-369 880.1784,-190.0078 880.1784,-190.0078"/>
<polygon fill="#000000" stroke="#000000" points="883.6785,-190.0077 880.1784,-180.0078 876.6785,-190.0078 883.6785,-190.0077"/>
</g>
<!-- github.com/jinzhu/inflection -->
<g id="node19" class="node">
<title>github.com/jinzhu/inflection</title>
<path fill="#2ac0ff" stroke="#000000" d="M3389.5468,-468C3389.5468,-468 3237.9154,-468 3237.9154,-468 3231.9154,-468 3225.9154,-462 3225.9154,-456 3225.9154,-456 3225.9154,-444 3225.9154,-444 3225.9154,-438 3231.9154,-432 3237.9154,-432 3237.9154,-432 3389.5468,-432 3389.5468,-432 3395.5468,-432 3401.5468,-438 3401.5468,-444 3401.5468,-444 3401.5468,-456 3401.5468,-456 3401.5468,-462 3395.5468,-468 3389.5468,-468"/>
<text text-anchor="middle" x="3313.7311" y="-445.8" font-family="Times,serif" font-size="14.00" fill="#000000">github.com/jinzhu/inflection</text>
</g>
<!-- github.com/jinzhu/now -->
<g id="node20" class="node">
<title>github.com/jinzhu/now</title>
<path fill="#ff1301" stroke="#000000" d="M3554.0013,-468C3554.0013,-468 3431.4609,-468 3431.4609,-468 3425.4609,-468 3419.4609,-462 3419.4609,-456 3419.4609,-456 3419.4609,-444 3419.4609,-444 3419.4609,-438 3425.4609,-432 3431.4609,-432 3431.4609,-432 3554.0013,-432 3554.0013,-432 3560.0013,-432 3566.0013,-438 3566.0013,-444 3566.0013,-444 3566.0013,-456 3566.0013,-456 3566.0013,-462 3560.0013,-468 3554.0013,-468"/>
<text text-anchor="middle" x="3492.7311" y="-445.8" font-family="Times,serif" font-size="14.00" fill="#ffffff">github.com/jinzhu/now</text>
</g>
<!-- github.com/kelseyhightower/envconfig -->
<g id="node21" class="node">
<title>github.com/kelseyhightower/envconfig</title>
<path fill="#27e2ff" stroke="#000000" d="M1761.4067,-612C1761.4067,-612 1550.0555,-612 1550.0555,-612 1544.0555,-612 1538.0555,-606 1538.0555,-600 1538.0555,-600 1538.0555,-588 1538.0555,-588 1538.0555,-582 1544.0555,-576 1550.0555,-576 1550.0555,-576 1761.4067,-576 1761.4067,-576 1767.4067,-576 1773.4067,-582 1773.4067,-588 1773.4067,-588 1773.4067,-600 1773.4067,-600 1773.4067,-606 1767.4067,-612 1761.4067,-612"/>
<text text-anchor="middle" x="1655.7311" y="-589.8" font-family="Times,serif" font-size="14.00" fill="#000000">github.com/kelseyhightower/envconfig</text>
</g>
<!-- github.com/konsorten/go&#45;windows&#45;terminal&#45;sequences -->
<g id="node22" class="node">
<title>github.com/konsorten/go-windows-terminal-sequences</title>
<path fill="#2d81ff" stroke="#000000" d="M1180.0392,-108C1180.0392,-108 879.423,-108 879.423,-108 873.423,-108 867.423,-102 867.423,-96 867.423,-96 867.423,-84 867.423,-84 867.423,-78 873.423,-72 879.423,-72 879.423,-72 1180.0392,-72 1180.0392,-72 1186.0392,-72 1192.0392,-78 1192.0392,-84 1192.0392,-84 1192.0392,-96 1192.0392,-96 1192.0392,-102 1186.0392,-108 1180.0392,-108"/>
<text text-anchor="middle" x="1029.7311" y="-85.8" font-family="Times,serif" font-size="14.00" fill="#000000">github.com/konsorten/go-windows-terminal-sequences</text>
</g>
<!-- golang.org/x/sys -->
<g id="node36" class="node">
<title>golang.org/x/sys</title>
<path fill="#1bff41" stroke="#000000" d="M1458.1673,-36C1458.1673,-36 1373.2949,-36 1373.2949,-36 1367.2949,-36 1361.2949,-30 1361.2949,-24 1361.2949,-24 1361.2949,-12 1361.2949,-12 1361.2949,-6 1367.2949,0 1373.2949,0 1373.2949,0 1458.1673,0 1458.1673,0 1464.1673,0 1470.1673,-6 1470.1673,-12 1470.1673,-12 1470.1673,-24 1470.1673,-24 1470.1673,-30 1464.1673,-36 1458.1673,-36"/>
<text text-anchor="middle" x="1415.7311" y="-13.8" font-family="Times,serif" font-size="14.00" fill="#000000">golang.org/x/sys</text>
</g>
<!-- github.com/mattn/go&#45;isatty&#45;&gt;golang.org/x/sys -->
<g id="edge37" class="edge">
<title>github.com/mattn/go-isatty-&gt;golang.org/x/sys</title>
<path fill="none" stroke="#000000" d="M1225.5176,-431.8242C1225.5176,-350.8594 1225.5176,-27 1225.5176,-27 1225.5176,-27 1351.2235,-27 1351.2235,-27"/>
<polygon fill="#000000" stroke="#000000" points="1351.2236,-30.5001 1361.2235,-27 1351.2235,-23.5001 1351.2236,-30.5001"/>
</g>
<!-- github.com/mattn/go&#45;sqlite3 -->
<g id="node25" class="node">
<title>github.com/mattn/go-sqlite3</title>
<path fill="#ff6905" stroke="#000000" d="M3335.2767,-540C3335.2767,-540 3184.1855,-540 3184.1855,-540 3178.1855,-540 3172.1855,-534 3172.1855,-528 3172.1855,-528 3172.1855,-516 3172.1855,-516 3172.1855,-510 3178.1855,-504 3184.1855,-504 3184.1855,-504 3335.2767,-504 3335.2767,-504 3341.2767,-504 3347.2767,-510 3347.2767,-516 3347.2767,-516 3347.2767,-528 3347.2767,-528 3347.2767,-534 3341.2767,-540 3335.2767,-540"/>
<text text-anchor="middle" x="3259.7311" y="-517.8" font-family="Times,serif" font-size="14.00" fill="#ffffff">github.com/mattn/go-sqlite3</text>
</g>
<!-- github.com/matttproud/golang_protobuf_extensions -->
<g id="node26" class="node">
<title>github.com/matttproud/golang_protobuf_extensions</title>
<path fill="#3140ff" stroke="#000000" d="M3285.7529,-252C3285.7529,-252 3001.7093,-252 3001.7093,-252 2995.7093,-252 2989.7093,-246 2989.7093,-240 2989.7093,-240 2989.7093,-228 2989.7093,-228 2989.7093,-222 2995.7093,-216 3001.7093,-216 3001.7093,-216 3285.7529,-216 3285.7529,-216 3291.7529,-216 3297.7529,-222 3297.7529,-228 3297.7529,-228 3297.7529,-240 3297.7529,-240 3297.7529,-246 3291.7529,-252 3285.7529,-252"/>
<text text-anchor="middle" x="3143.7311" y="-229.8" font-family="Times,serif" font-size="14.00" fill="#ffffff">github.com/matttproud/golang_protobuf_extensions</text>
</g>
<!-- github.com/matttproud/golang_protobuf_extensions&#45;&gt;github.com/golang/protobuf -->
<g id="edge38" class="edge">
<title>github.com/matttproud/golang_protobuf_extensions-&gt;github.com/golang/protobuf</title>
<path fill="none" stroke="#000000" d="M3057.5968,-215.8314C3057.5968,-215.8314 3057.5968,-190.4133 3057.5968,-190.4133"/>
<polygon fill="#000000" stroke="#000000" points="3061.0969,-190.4132 3057.5968,-180.4133 3054.0969,-190.4133 3061.0969,-190.4132"/>
</g>
<!-- github.com/noirbizarre/gonja -->
<g id="node27" class="node">
<title>github.com/noirbizarre/gonja</title>
<path fill="#71ff14" stroke="#000000" d="M1073.411,-324C1073.411,-324 918.0512,-324 918.0512,-324 912.0512,-324 906.0512,-318 906.0512,-312 906.0512,-312 906.0512,-300 906.0512,-300 906.0512,-294 912.0512,-288 918.0512,-288 918.0512,-288 1073.411,-288 1073.411,-288 1079.411,-288 1085.411,-294 1085.411,-300 1085.411,-300 1085.411,-312 1085.411,-312 1085.411,-318 1079.411,-324 1073.411,-324"/>
<text text-anchor="middle" x="995.7311" y="-301.8" font-family="Times,serif" font-size="14.00" fill="#000000">github.com/noirbizarre/gonja</text>
</g>
<!-- github.com/noirbizarre/gonja&#45;&gt;github.com/goph/emperror -->
<g id="edge39" class="edge">
<title>github.com/noirbizarre/gonja-&gt;github.com/goph/emperror</title>
<path fill="none" stroke="#000000" d="M1056.5337,-287.8314C1056.5337,-287.8314 1056.5337,-262.4133 1056.5337,-262.4133"/>
<polygon fill="#000000" stroke="#000000" points="1060.0338,-262.4132 1056.5337,-252.4133 1053.0338,-262.4133 1060.0338,-262.4132"/>
</g>
<!-- github.com/noirbizarre/gonja&#45;&gt;github.com/pkg/errors -->
<g id="edge40" class="edge">
<title>github.com/noirbizarre/gonja-&gt;github.com/pkg/errors</title>
<path fill="none" stroke="#000000" d="M1085.8237,-316C1184.9115,-316 1330.2782,-316 1330.2782,-316 1330.2782,-316 1330.2782,-118.1125 1330.2782,-118.1125"/>
<polygon fill="#000000" stroke="#000000" points="1333.7783,-118.1125 1330.2782,-108.1125 1326.7783,-118.1125 1333.7783,-118.1125"/>
</g>
<!-- github.com/noirbizarre/gonja&#45;&gt;github.com/sirupsen/logrus -->
<g id="edge41" class="edge">
<title>github.com/noirbizarre/gonja-&gt;github.com/sirupsen/logrus</title>
<path fill="none" stroke="#000000" d="M966.6939,-287.7623C966.6939,-287.7623 966.6939,-190.0896 966.6939,-190.0896"/>
<polygon fill="#000000" stroke="#000000" points="970.194,-190.0896 966.6939,-180.0896 963.194,-190.0897 970.194,-190.0896"/>
</g>
<!-- github.com/prometheus/client_golang -->
<g id="node29" class="node">
<title>github.com/prometheus/client_golang</title>
<path fill="#ff9f07" stroke="#000000" d="M2787.9207,-540C2787.9207,-540 2583.5415,-540 2583.5415,-540 2577.5415,-540 2571.5415,-534 2571.5415,-528 2571.5415,-528 2571.5415,-516 2571.5415,-516 2571.5415,-510 2577.5415,-504 2583.5415,-504 2583.5415,-504 2787.9207,-504 2787.9207,-504 2793.9207,-504 2799.9207,-510 2799.9207,-516 2799.9207,-516 2799.9207,-528 2799.9207,-528 2799.9207,-534 2793.9207,-540 2787.9207,-540"/>
<text text-anchor="middle" x="2685.7311" y="-517.8" font-family="Times,serif" font-size="14.00" fill="#000000">github.com/prometheus/client_golang</text>
</g>
<!-- github.com/prometheus/client_golang&#45;&gt;github.com/beorn7/perks -->
<g id="edge42" class="edge">
<title>github.com/prometheus/client_golang-&gt;github.com/beorn7/perks</title>
<path fill="none" stroke="#000000" d="M2590.9481,-503.8269C2590.9481,-457.0245 2590.9481,-336 2590.9481,-336 2590.9481,-336 2349.2006,-336 2349.2006,-336 2349.2006,-336 2349.2006,-334.1432 2349.2006,-334.1432"/>
<polygon fill="#000000" stroke="#000000" points="2352.7007,-334.1432 2349.2006,-324.1432 2345.7007,-334.1432 2352.7007,-334.1432"/>
</g>
<!-- github.com/prometheus/client_golang&#45;&gt;github.com/cespare/xxhash/v2 -->
<g id="edge43" class="edge">
<title>github.com/prometheus/client_golang-&gt;github.com/cespare/xxhash/v2</title>
<path fill="none" stroke="#000000" d="M2610.5099,-503.9555C2610.5099,-503.9555 2610.5099,-334.1451 2610.5099,-334.1451"/>
<polygon fill="#000000" stroke="#000000" points="2614.01,-334.145 2610.5099,-324.1451 2607.01,-334.1451 2614.01,-334.145"/>
</g>
<!-- github.com/prometheus/client_golang&#45;&gt;github.com/golang/protobuf -->
<g id="edge44" class="edge">
<title>github.com/prometheus/client_golang-&gt;github.com/golang/protobuf</title>
<path fill="none" stroke="#000000" d="M2656.6513,-503.9584C2656.6513,-431.8201 2656.6513,-168 2656.6513,-168 2656.6513,-168 2941.5532,-168 2941.5532,-168"/>
<polygon fill="#000000" stroke="#000000" points="2941.5532,-171.5001 2951.5532,-168 2941.5532,-164.5001 2941.5532,-171.5001"/>
</g>
<!-- github.com/prometheus/client_model -->
<g id="node30" class="node">
<title>github.com/prometheus/client_model</title>
<path fill="#ff1901" stroke="#000000" d="M2883.3115,-252C2883.3115,-252 2682.1507,-252 2682.1507,-252 2676.1507,-252 2670.1507,-246 2670.1507,-240 2670.1507,-240 2670.1507,-228 2670.1507,-228 2670.1507,-222 2676.1507,-216 2682.1507,-216 2682.1507,-216 2883.3115,-216 2883.3115,-216 2889.3115,-216 2895.3115,-222 2895.3115,-228 2895.3115,-228 2895.3115,-240 2895.3115,-240 2895.3115,-246 2889.3115,-252 2883.3115,-252"/>
<text text-anchor="middle" x="2782.7311" y="-229.8" font-family="Times,serif" font-size="14.00" fill="#ffffff">github.com/prometheus/client_model</text>
</g>
<!-- github.com/prometheus/client_golang&#45;&gt;github.com/prometheus/client_model -->
<g id="edge45" class="edge">
<title>github.com/prometheus/client_golang-&gt;github.com/prometheus/client_model</title>
<path fill="none" stroke="#000000" d="M2702.4748,-503.9843C2702.4748,-503.9843 2702.4748,-262.0089 2702.4748,-262.0089"/>
<polygon fill="#000000" stroke="#000000" points="2705.9749,-262.0088 2702.4748,-252.0089 2698.9749,-262.0089 2705.9749,-262.0088"/>
</g>
<!-- github.com/prometheus/common -->
<g id="node31" class="node">
<title>github.com/prometheus/common</title>
<path fill="#1dff61" stroke="#000000" d="M3027.7107,-468C3027.7107,-468 2849.7515,-468 2849.7515,-468 2843.7515,-468 2837.7515,-462 2837.7515,-456 2837.7515,-456 2837.7515,-444 2837.7515,-444 2837.7515,-438 2843.7515,-432 2849.7515,-432 2849.7515,-432 3027.7107,-432 3027.7107,-432 3033.7107,-432 3039.7107,-438 3039.7107,-444 3039.7107,-444 3039.7107,-456 3039.7107,-456 3039.7107,-462 3033.7107,-468 3027.7107,-468"/>
<text text-anchor="middle" x="2938.7311" y="-445.8" font-family="Times,serif" font-size="14.00" fill="#000000">github.com/prometheus/common</text>
</g>
<!-- github.com/prometheus/client_golang&#45;&gt;github.com/prometheus/common -->
<g id="edge46" class="edge">
<title>github.com/prometheus/client_golang-&gt;github.com/prometheus/common</title>
<path fill="none" stroke="#000000" d="M2735.0085,-503.9891C2735.0085,-481.5148 2735.0085,-446 2735.0085,-446 2735.0085,-446 2827.765,-446 2827.765,-446"/>
<polygon fill="#000000" stroke="#000000" points="2827.7651,-449.5001 2837.765,-446 2827.765,-442.5001 2827.7651,-449.5001"/>
</g>
<!-- github.com/prometheus/client_golang&#45;&gt;golang.org/x/sys -->
<g id="edge47" class="edge">
<title>github.com/prometheus/client_golang-&gt;golang.org/x/sys</title>
<path fill="none" stroke="#000000" d="M2571.4633,-532C2296.0134,-532 1617.9829,-532 1617.9829,-532 1617.9829,-532 1617.9829,-18 1617.9829,-18 1617.9829,-18 1480.1969,-18 1480.1969,-18"/>
<polygon fill="#000000" stroke="#000000" points="1480.197,-14.5001 1470.1969,-18 1480.1969,-21.5001 1480.197,-14.5001"/>
</g>
<!-- github.com/prometheus/client_golang&#45;&gt;google.golang.org/protobuf -->
<g id="edge48" class="edge">
<title>github.com/prometheus/client_golang-&gt;google.golang.org/protobuf</title>
<path fill="none" stroke="#000000" d="M2643.3614,-503.8672C2643.3614,-423.0938 2643.3614,-100 2643.3614,-100 2643.3614,-100 2943.4285,-100 2943.4285,-100"/>
<polygon fill="#000000" stroke="#000000" points="2943.4286,-103.5001 2953.4285,-100 2943.4285,-96.5001 2943.4286,-103.5001"/>
</g>
<!-- github.com/prometheus/client_model&#45;&gt;github.com/golang/protobuf -->
<g id="edge49" class="edge">
<title>github.com/prometheus/client_model-&gt;github.com/golang/protobuf</title>
<path fill="none" stroke="#000000" d="M2895.5627,-234C2932.6512,-234 2964.5659,-234 2964.5659,-234 2964.5659,-234 2964.5659,-190.1686 2964.5659,-190.1686"/>
<polygon fill="#000000" stroke="#000000" points="2968.066,-190.1686 2964.5659,-180.1686 2961.066,-190.1687 2968.066,-190.1686"/>
</g>
<!-- github.com/prometheus/common&#45;&gt;github.com/golang/protobuf -->
<g id="edge50" class="edge">
<title>github.com/prometheus/common-&gt;github.com/golang/protobuf</title>
<path fill="none" stroke="#000000" d="M2977.1431,-431.9843C2977.1431,-431.9843 2977.1431,-190.0089 2977.1431,-190.0089"/>
<polygon fill="#000000" stroke="#000000" points="2980.6432,-190.0088 2977.1431,-180.0089 2973.6432,-190.0089 2980.6432,-190.0088"/>
</g>
<!-- github.com/prometheus/common&#45;&gt;github.com/matttproud/golang_protobuf_extensions -->
<g id="edge51" class="edge">
<title>github.com/prometheus/common-&gt;github.com/matttproud/golang_protobuf_extensions</title>
<path fill="none" stroke="#000000" d="M3014.5954,-431.9555C3014.5954,-431.9555 3014.5954,-262.1451 3014.5954,-262.1451"/>
<polygon fill="#000000" stroke="#000000" points="3018.0955,-262.145 3014.5954,-252.1451 3011.0955,-262.1451 3018.0955,-262.145"/>
</g>
<!-- github.com/prometheus/common&#45;&gt;github.com/pkg/errors -->
<g id="edge52" class="edge">
<title>github.com/prometheus/common-&gt;github.com/pkg/errors</title>
<path fill="none" stroke="#000000" d="M2857.1681,-431.7644C2857.1681,-402.4256 2857.1681,-348 2857.1681,-348 2857.1681,-348 1377.2144,-348 1377.2144,-348 1377.2144,-348 1377.2144,-118.1421 1377.2144,-118.1421"/>
<polygon fill="#000000" stroke="#000000" points="1380.7145,-118.142 1377.2144,-108.1421 1373.7145,-118.1421 1380.7145,-118.142"/>
</g>
<!-- github.com/prometheus/common&#45;&gt;github.com/prometheus/client_golang -->
<g id="edge53" class="edge">
<title>github.com/prometheus/common-&gt;github.com/prometheus/client_golang</title>
<path fill="none" stroke="#000000" d="M2837.6652,-453C2800.602,-453 2767.5421,-453 2767.5421,-453 2767.5421,-453 2767.5421,-493.8711 2767.5421,-493.8711"/>
<polygon fill="#000000" stroke="#000000" points="2764.0422,-493.871 2767.5421,-503.8711 2771.0422,-493.8711 2764.0422,-493.871"/>
</g>
<!-- github.com/prometheus/common&#45;&gt;github.com/prometheus/client_model -->
<g id="edge54" class="edge">
<title>github.com/prometheus/common-&gt;github.com/prometheus/client_model</title>
<path fill="none" stroke="#000000" d="M2876.3446,-431.9555C2876.3446,-431.9555 2876.3446,-262.1451 2876.3446,-262.1451"/>
<polygon fill="#000000" stroke="#000000" points="2879.8447,-262.145 2876.3446,-252.1451 2872.8447,-262.1451 2879.8447,-262.145"/>
</g>
<!-- github.com/prometheus/common&#45;&gt;gopkg.in/yaml.v2 -->
<g id="edge55" class="edge">
<title>github.com/prometheus/common-&gt;gopkg.in/yaml.v2</title>
<path fill="none" stroke="#000000" d="M2837.8733,-439C2648.8415,-439 2260.1497,-439 2260.1497,-439 2260.1497,-439 2260.1497,-228 2260.1497,-228 2260.1497,-228 1780.0223,-228 1780.0223,-228"/>
<polygon fill="#000000" stroke="#000000" points="1780.0224,-224.5001 1770.0223,-228 1780.0223,-231.5001 1780.0224,-224.5001"/>
</g>
<!-- github.com/rs/zerolog&#45;&gt;github.com/pkg/errors -->
<g id="edge56" class="edge">
<title>github.com/rs/zerolog-&gt;github.com/pkg/errors</title>
<path fill="none" stroke="#000000" d="M1390.0634,-156C1385.498,-156 1382.6749,-156 1382.6749,-156 1382.6749,-156 1382.6749,-118.0348 1382.6749,-118.0348"/>
<polygon fill="#000000" stroke="#000000" points="1386.175,-118.0348 1382.6749,-108.0348 1379.175,-118.0348 1386.175,-118.0348"/>
</g>
<!-- github.com/rs/zerolog&#45;&gt;golang.org/x/crypto -->
<g id="edge57" class="edge">
<title>github.com/rs/zerolog-&gt;golang.org/x/crypto</title>
<path fill="none" stroke="#000000" stroke-dasharray="5,2" d="M1529.6485,-150C1616.447,-150 1753.188,-150 1753.188,-150 1753.188,-150 1753.188,-118.002 1753.188,-118.002"/>
<polygon fill="#000000" stroke="#000000" points="1756.6881,-118.0019 1753.188,-108.002 1749.6881,-118.002 1756.6881,-118.0019"/>
</g>
<!-- github.com/sirupsen/logrus&#45;&gt;github.com/konsorten/go&#45;windows&#45;terminal&#45;sequences -->
<g id="edge58" class="edge">
<title>github.com/sirupsen/logrus-&gt;github.com/konsorten/go-windows-terminal-sequences</title>
<path fill="none" stroke="#000000" d="M951.8587,-143.8314C951.8587,-143.8314 951.8587,-118.4133 951.8587,-118.4133"/>
<polygon fill="#000000" stroke="#000000" points="955.3588,-118.4132 951.8587,-108.4133 948.3588,-118.4133 955.3588,-118.4132"/>
</g>
<!-- github.com/sirupsen/logrus&#45;&gt;golang.org/x/sys -->
<g id="edge59" class="edge">
<title>github.com/sirupsen/logrus-&gt;golang.org/x/sys</title>
<path fill="none" stroke="#000000" d="M1036.2753,-168C1106.9962,-168 1196.4014,-168 1196.4014,-168 1196.4014,-168 1196.4014,-9 1196.4014,-9 1196.4014,-9 1351.2329,-9 1351.2329,-9"/>
<polygon fill="#000000" stroke="#000000" points="1351.233,-12.5001 1361.2329,-9 1351.2329,-5.5001 1351.233,-12.5001"/>
</g>
<!-- golang.org/x/crypto&#45;&gt;golang.org/x/sys -->
<g id="edge60" class="edge">
<title>golang.org/x/crypto-&gt;golang.org/x/sys</title>
<path fill="none" stroke="#000000" d="M1719.2898,-90C1617.78,-90 1430.1519,-90 1430.1519,-90 1430.1519,-90 1430.1519,-46.1686 1430.1519,-46.1686"/>
<polygon fill="#000000" stroke="#000000" points="1433.6519,-46.1686 1430.1519,-36.1686 1426.6519,-46.1687 1433.6519,-46.1686"/>
</g>
<!-- golang.org/x/crypto&#45;&gt;golang.org/x/text -->
<g id="edge61" class="edge">
<title>golang.org/x/crypto-&gt;golang.org/x/text</title>
<path fill="none" stroke="#000000" stroke-dasharray="5,2" d="M1836.6616,-71.8314C1836.6616,-71.8314 1836.6616,-46.4133 1836.6616,-46.4133"/>
<polygon fill="#000000" stroke="#000000" points="1840.1617,-46.4132 1836.6616,-36.4133 1833.1617,-46.4133 1840.1617,-46.4132"/>
</g>
<!-- google.golang.org/protobuf&#45;&gt;github.com/golang/protobuf -->
<g id="edge62" class="edge">
<title>google.golang.org/protobuf-&gt;github.com/golang/protobuf</title>
<path fill="none" stroke="#000000" d="M3010.4022,-108.1686C3010.4022,-108.1686 3010.4022,-133.5867 3010.4022,-133.5867"/>
<polygon fill="#000000" stroke="#000000" points="3006.9023,-133.5867 3010.4022,-143.5867 3013.9023,-133.5868 3006.9023,-133.5867"/>
</g>
<!-- gorm.io/driver/postgres -->
<g id="node40" class="node">
<title>gorm.io/driver/postgres</title>
<path fill="#b83bff" stroke="#000000" d="M2003.5356,-612C2003.5356,-612 1879.9266,-612 1879.9266,-612 1873.9266,-612 1867.9266,-606 1867.9266,-600 1867.9266,-600 1867.9266,-588 1867.9266,-588 1867.9266,-582 1873.9266,-576 1879.9266,-576 1879.9266,-576 2003.5356,-576 2003.5356,-576 2009.5356,-576 2015.5356,-582 2015.5356,-588 2015.5356,-588 2015.5356,-600 2015.5356,-600 2015.5356,-606 2009.5356,-612 2003.5356,-612"/>
<text text-anchor="middle" x="1941.7311" y="-589.8" font-family="Times,serif" font-size="14.00" fill="#ffffff">gorm.io/driver/postgres</text>
</g>
<!-- gorm.io/driver/postgres&#45;&gt;github.com/jackc/pgx/v4 -->
<g id="edge63" class="edge">
<title>gorm.io/driver/postgres-&gt;github.com/jackc/pgx/v4</title>
<path fill="none" stroke="#000000" d="M1881.2737,-575.9922C1881.2737,-525.6304 1881.2737,-387 1881.2737,-387 1881.2737,-387 707.6942,-387 707.6942,-387"/>
<polygon fill="#000000" stroke="#000000" points="707.6942,-383.5001 697.6942,-387 707.6942,-390.5001 707.6942,-383.5001"/>
</g>
<!-- gorm.io/driver/postgres&#45;&gt;golang.org/x/crypto -->
<g id="edge64" class="edge">
<title>gorm.io/driver/postgres-&gt;golang.org/x/crypto</title>
<path fill="none" stroke="#000000" stroke-dasharray="5,2" d="M1894.7185,-575.8732C1894.7185,-486.0542 1894.7185,-93 1894.7185,-93 1894.7185,-93 1856.2505,-93 1856.2505,-93"/>
<polygon fill="#000000" stroke="#000000" points="1856.2505,-89.5001 1846.2505,-93 1856.2505,-96.5001 1856.2505,-89.5001"/>
</g>
<!-- gorm.io/driver/postgres&#45;&gt;golang.org/x/text -->
<g id="edge65" class="edge">
<title>gorm.io/driver/postgres-&gt;golang.org/x/text</title>
<path fill="none" stroke="#000000" stroke-dasharray="5,2" d="M1908.1632,-575.8101C1908.1632,-575.8101 1908.1632,-46.1943 1908.1632,-46.1943"/>
<polygon fill="#000000" stroke="#000000" points="1911.6633,-46.1942 1908.1632,-36.1943 1904.6633,-46.1943 1911.6633,-46.1942"/>
</g>
<!-- gorm.io/gorm -->
<g id="node42" class="node">
<title>gorm.io/gorm</title>
<path fill="#a439ff" stroke="#000000" d="M3446.6155,-540C3446.6155,-540 3376.8467,-540 3376.8467,-540 3370.8467,-540 3364.8467,-534 3364.8467,-528 3364.8467,-528 3364.8467,-516 3364.8467,-516 3364.8467,-510 3370.8467,-504 3376.8467,-504 3376.8467,-504 3446.6155,-504 3446.6155,-504 3452.6155,-504 3458.6155,-510 3458.6155,-516 3458.6155,-516 3458.6155,-528 3458.6155,-528 3458.6155,-534 3452.6155,-540 3446.6155,-540"/>
<text text-anchor="middle" x="3411.7311" y="-517.8" font-family="Times,serif" font-size="14.00" fill="#ffffff">gorm.io/gorm</text>
</g>
<!-- gorm.io/driver/postgres&#45;&gt;gorm.io/gorm -->
<g id="edge66" class="edge">
<title>gorm.io/driver/postgres-&gt;gorm.io/gorm</title>
<path fill="none" stroke="#000000" d="M1952.9498,-575.5782C1952.9498,-566.7209 1952.9498,-558 1952.9498,-558 1952.9498,-558 3388.3852,-558 3388.3852,-558 3388.3852,-558 3388.3852,-550.4218 3388.3852,-550.4218"/>
<polygon fill="#000000" stroke="#000000" points="3391.8853,-550.4218 3388.3852,-540.4218 3384.8853,-550.4219 3391.8853,-550.4218"/>
</g>
<!-- gorm.io/driver/sqlite -->
<g id="node41" class="node">
<title>gorm.io/driver/sqlite</title>
<path fill="#ff8006" stroke="#000000" d="M3329.7124,-612C3329.7124,-612 3221.7498,-612 3221.7498,-612 3215.7498,-612 3209.7498,-606 3209.7498,-600 3209.7498,-600 3209.7498,-588 3209.7498,-588 3209.7498,-582 3215.7498,-576 3221.7498,-576 3221.7498,-576 3329.7124,-576 3329.7124,-576 3335.7124,-576 3341.7124,-582 3341.7124,-588 3341.7124,-588 3341.7124,-600 3341.7124,-600 3341.7124,-606 3335.7124,-612 3329.7124,-612"/>
<text text-anchor="middle" x="3275.7311" y="-589.8" font-family="Times,serif" font-size="14.00" fill="#ffffff">gorm.io/driver/sqlite</text>
</g>
<!-- gorm.io/driver/sqlite&#45;&gt;github.com/mattn/go&#45;sqlite3 -->
<g id="edge67" class="edge">
<title>gorm.io/driver/sqlite-&gt;github.com/mattn/go-sqlite3</title>
<path fill="none" stroke="#000000" d="M3275.7311,-575.8314C3275.7311,-575.8314 3275.7311,-550.4133 3275.7311,-550.4133"/>
<polygon fill="#000000" stroke="#000000" points="3279.2312,-550.4132 3275.7311,-540.4133 3272.2312,-550.4133 3279.2312,-550.4132"/>
</g>
<!-- gorm.io/driver/sqlite&#45;&gt;gorm.io/gorm -->
<g id="edge68" class="edge">
<title>gorm.io/driver/sqlite-&gt;gorm.io/gorm</title>
<path fill="none" stroke="#000000" d="M3341.7392,-594C3376.39,-594 3411.7311,-594 3411.7311,-594 3411.7311,-594 3411.7311,-550.1686 3411.7311,-550.1686"/>
<polygon fill="#000000" stroke="#000000" points="3415.2312,-550.1686 3411.7311,-540.1686 3408.2312,-550.1687 3415.2312,-550.1686"/>
</g>
<!-- gorm.io/gorm&#45;&gt;github.com/jinzhu/inflection -->
<g id="edge69" class="edge">
<title>gorm.io/gorm-&gt;github.com/jinzhu/inflection</title>
<path fill="none" stroke="#000000" d="M3383.3391,-503.8314C3383.3391,-503.8314 3383.3391,-478.4133 3383.3391,-478.4133"/>
<polygon fill="#000000" stroke="#000000" points="3386.8392,-478.4132 3383.3391,-468.4133 3379.8392,-478.4133 3386.8392,-478.4132"/>
</g>
<!-- gorm.io/gorm&#45;&gt;github.com/jinzhu/now -->
<g id="edge70" class="edge">
<title>gorm.io/gorm-&gt;github.com/jinzhu/now</title>
<path fill="none" stroke="#000000" d="M3439.0095,-503.8314C3439.0095,-503.8314 3439.0095,-478.4133 3439.0095,-478.4133"/>
<polygon fill="#000000" stroke="#000000" points="3442.5096,-478.4132 3439.0095,-468.4133 3435.5096,-478.4133 3442.5096,-478.4132"/>
</g>
<!-- minitwit -->
<g id="node43" class="node">
<title>minitwit</title>
<path fill="#ff45ae" stroke="#000000" d="M1748.6829,-684C1748.6829,-684 1708.7793,-684 1708.7793,-684 1702.7793,-684 1696.7793,-678 1696.7793,-672 1696.7793,-672 1696.7793,-660 1696.7793,-660 1696.7793,-654 1702.7793,-648 1708.7793,-648 1708.7793,-648 1748.6829,-648 1748.6829,-648 1754.6829,-648 1760.6829,-654 1760.6829,-660 1760.6829,-660 1760.6829,-672 1760.6829,-672 1760.6829,-678 1754.6829,-684 1748.6829,-684"/>
<text text-anchor="middle" x="1728.7311" y="-661.8" font-family="Times,serif" font-size="14.00" fill="#000000">minitwit</text>
</g>
<!-- minitwit&#45;&gt;github.com/beorn7/perks -->
<g id="edge71" class="edge">
<title>minitwit-&gt;github.com/beorn7/perks</title>
<path fill="none" stroke="#000000" stroke-dasharray="5,2" d="M1760.6325,-670C1875.9412,-670 2264.3497,-670 2264.3497,-670 2264.3497,-670 2264.3497,-306 2264.3497,-306 2264.3497,-306 2264.7471,-306 2264.7471,-306"/>
<polygon fill="#000000" stroke="#000000" points="2258.3233,-309.5003 2268.3232,-306 2258.3231,-302.5003 2258.3233,-309.5003"/>
</g>
<!-- minitwit&#45;&gt;github.com/cespare/xxhash/v2 -->
<g id="edge72" class="edge">
<title>minitwit-&gt;github.com/cespare/xxhash/v2</title>
<path fill="none" stroke="#000000" stroke-dasharray="5,2" d="M1760.7071,-674C1907.2301,-674 2507.3885,-674 2507.3885,-674 2507.3885,-674 2507.3885,-334.2492 2507.3885,-334.2492"/>
<polygon fill="#000000" stroke="#000000" points="2510.8886,-334.2491 2507.3885,-324.2492 2503.8886,-334.2492 2510.8886,-334.2491"/>
</g>
<!-- minitwit&#45;&gt;github.com/gin&#45;contrib/logger -->
<g id="edge73" class="edge">
<title>minitwit-&gt;github.com/gin-contrib/logger</title>
<path fill="none" stroke="#000000" d="M1696.8288,-652C1605.698,-652 1350.7311,-652 1350.7311,-652 1350.7311,-652 1350.7311,-622.0336 1350.7311,-622.0336"/>
<polygon fill="#000000" stroke="#000000" points="1354.2312,-622.0336 1350.7311,-612.0336 1347.2312,-622.0337 1354.2312,-622.0336"/>
</g>
<!-- minitwit&#45;&gt;github.com/gin&#45;contrib/sse -->
<g id="edge74" class="edge">
<title>minitwit-&gt;github.com/gin-contrib/sse</title>
<path fill="none" stroke="#000000" stroke-dasharray="5,2" d="M1696.757,-662C1565.5046,-662 1074.9846,-662 1074.9846,-662 1074.9846,-662 1074.9846,-478.075 1074.9846,-478.075"/>
<polygon fill="#000000" stroke="#000000" points="1078.4847,-478.075 1074.9846,-468.075 1071.4847,-478.075 1078.4847,-478.075"/>
</g>
<!-- minitwit&#45;&gt;github.com/gin&#45;gonic/gin -->
<g id="edge75" class="edge">
<title>minitwit-&gt;github.com/gin-gonic/gin</title>
<path fill="none" stroke="#000000" d="M1696.6153,-650C1631.6151,-650 1490.5975,-650 1490.5975,-650 1490.5975,-650 1490.5975,-550.0678 1490.5975,-550.0678"/>
<polygon fill="#000000" stroke="#000000" points="1494.0976,-550.0678 1490.5975,-540.0678 1487.0976,-550.0678 1494.0976,-550.0678"/>
</g>
<!-- minitwit&#45;&gt;github.com/go&#45;playground/locales -->
<g id="edge76" class="edge">
<title>minitwit-&gt;github.com/go-playground/locales</title>
<path fill="none" stroke="#000000" stroke-dasharray="5,2" d="M1760.7496,-662C1800.2961,-662 1862.4061,-662 1862.4061,-662 1862.4061,-662 1862.4061,-302 1862.4061,-302 1862.4061,-302 2017.2175,-302 2017.2175,-302"/>
<polygon fill="#000000" stroke="#000000" points="2017.2176,-305.5001 2027.2175,-302 2017.2175,-298.5001 2017.2176,-305.5001"/>
</g>
<!-- minitwit&#45;&gt;github.com/go&#45;playground/universal&#45;translator -->
<g id="edge77" class="edge">
<title>minitwit-&gt;github.com/go-playground/universal-translator</title>
<path fill="none" stroke="#000000" stroke-dasharray="5,2" d="M1760.7411,-668C1868.4319,-668 2210.9019,-668 2210.9019,-668 2210.9019,-668 2210.9019,-406.1408 2210.9019,-406.1408"/>
<polygon fill="#000000" stroke="#000000" points="2214.402,-406.1408 2210.9019,-396.1408 2207.402,-406.1408 2214.402,-406.1408"/>
</g>
<!-- minitwit&#45;&gt;github.com/go&#45;playground/validator/v10 -->
<g id="edge78" class="edge">
<title>minitwit-&gt;github.com/go-playground/validator/v10</title>
<path fill="none" stroke="#000000" stroke-dasharray="5,2" d="M1760.54,-666C1848.8778,-666 2090.7438,-666 2090.7438,-666 2090.7438,-666 2090.7438,-478.0445 2090.7438,-478.0445"/>
<polygon fill="#000000" stroke="#000000" points="2094.2438,-478.0445 2090.7438,-468.0445 2087.2438,-478.0446 2094.2438,-478.0445"/>
</g>
<!-- minitwit&#45;&gt;github.com/golang/protobuf -->
<g id="edge79" class="edge">
<title>minitwit-&gt;github.com/golang/protobuf</title>
<path fill="none" stroke="#000000" stroke-dasharray="5,2" d="M1760.6138,-658C1791.6098,-658 1834.0427,-658 1834.0427,-658 1834.0427,-658 1834.0427,-162 1834.0427,-162 1834.0427,-162 2941.6083,-162 2941.6083,-162"/>
<polygon fill="#000000" stroke="#000000" points="2941.6083,-165.5001 2951.6083,-162 2941.6082,-158.5001 2941.6083,-165.5001"/>
</g>
<!-- minitwit&#45;&gt;github.com/goph/emperror -->
<g id="edge80" class="edge">
<title>minitwit-&gt;github.com/goph/emperror</title>
<path fill="none" stroke="#000000" stroke-dasharray="5,2" d="M1696.6425,-660C1580.6568,-660 1189.9682,-660 1189.9682,-660 1189.9682,-660 1189.9682,-262.0326 1189.9682,-262.0326"/>
<polygon fill="#000000" stroke="#000000" points="1193.4682,-262.0326 1189.9682,-252.0326 1186.4682,-262.0326 1193.4682,-262.0326"/>
</g>
<!-- minitwit&#45;&gt;github.com/jackc/chunkreader/v2 -->
<g id="edge81" class="edge">
<title>minitwit-&gt;github.com/jackc/chunkreader/v2</title>
<path fill="none" stroke="#000000" stroke-dasharray="5,2" d="M1696.9568,-672C1532.1104,-672 781.876,-672 781.876,-672 781.876,-672 781.876,-46.1743 781.876,-46.1743"/>
<polygon fill="#000000" stroke="#000000" points="785.376,-46.1743 781.876,-36.1743 778.376,-46.1743 785.376,-46.1743"/>
</g>
<!-- minitwit&#45;&gt;github.com/jackc/pgconn -->
<g id="edge82" class="edge">
<title>minitwit-&gt;github.com/jackc/pgconn</title>
<path fill="none" stroke="#000000" stroke-dasharray="5,2" d="M1696.8692,-670C1538.1962,-670 840.8521,-670 840.8521,-670 840.8521,-670 840.8521,-162 840.8521,-162 840.8521,-162 745.8835,-162 745.8835,-162"/>
<polygon fill="#000000" stroke="#000000" points="745.8836,-158.5001 735.8835,-162 745.8835,-165.5001 745.8836,-158.5001"/>
</g>
<!-- minitwit&#45;&gt;github.com/jackc/pgio -->
<g id="edge83" class="edge">
<title>minitwit-&gt;github.com/jackc/pgio</title>
<path fill="none" stroke="#000000" stroke-dasharray="5,2" d="M1696.9915,-682C1477.3621,-682 192.2162,-682 192.2162,-682 192.2162,-682 192.2162,-46.1048 192.2162,-46.1048"/>
<polygon fill="#000000" stroke="#000000" points="195.7163,-46.1047 192.2162,-36.1048 188.7163,-46.1048 195.7163,-46.1047"/>
</g>
<!-- minitwit&#45;&gt;github.com/jackc/pgpassfile -->
<g id="edge84" class="edge">
<title>minitwit-&gt;github.com/jackc/pgpassfile</title>
<path fill="none" stroke="#000000" stroke-dasharray="5,2" d="M1704.056,-647.8408C1704.056,-642.9567 1704.056,-639 1704.056,-639 1704.056,-639 57.8207,-639 57.8207,-639 57.8207,-639 57.8207,-118.2662 57.8207,-118.2662"/>
<polygon fill="#000000" stroke="#000000" points="61.3208,-118.2662 57.8207,-108.2662 54.3208,-118.2662 61.3208,-118.2662"/>
</g>
<!-- minitwit&#45;&gt;github.com/jackc/pgproto3/v2 -->
<g id="edge85" class="edge">
<title>minitwit-&gt;github.com/jackc/pgproto3/v2</title>
<path fill="none" stroke="#000000" stroke-dasharray="5,2" d="M1696.7082,-678C1504.1101,-678 508.047,-678 508.047,-678 508.047,-678 508.047,-118.2425 508.047,-118.2425"/>
<polygon fill="#000000" stroke="#000000" points="511.5471,-118.2424 508.047,-108.2425 504.5471,-118.2425 511.5471,-118.2424"/>
</g>
<!-- minitwit&#45;&gt;github.com/jackc/pgservicefile -->
<g id="edge86" class="edge">
<title>minitwit-&gt;github.com/jackc/pgservicefile</title>
<path fill="none" stroke="#000000" stroke-dasharray="5,2" d="M1696.8939,-680C1488.7267,-680 330.2314,-680 330.2314,-680 330.2314,-680 330.2314,-118.3045 330.2314,-118.3045"/>
<polygon fill="#000000" stroke="#000000" points="333.7315,-118.3045 330.2314,-108.3045 326.7315,-118.3045 333.7315,-118.3045"/>
</g>
<!-- minitwit&#45;&gt;github.com/jackc/pgtype -->
<g id="edge87" class="edge">
<title>minitwit-&gt;github.com/jackc/pgtype</title>
<path fill="none" stroke="#000000" stroke-dasharray="5,2" d="M1696.9984,-674C1519.6102,-674 658.7311,-674 658.7311,-674 658.7311,-674 658.7311,-478.3309 658.7311,-478.3309"/>
<polygon fill="#000000" stroke="#000000" points="662.2312,-478.3308 658.7311,-468.3309 655.2312,-478.3309 662.2312,-478.3308"/>
</g>
<!-- minitwit&#45;&gt;github.com/jackc/pgx/v4 -->
<g id="edge88" class="edge">
<title>minitwit-&gt;github.com/jackc/pgx/v4</title>
<path fill="none" stroke="#000000" stroke-dasharray="5,2" d="M1696.9087,-676C1509.8565,-676 561.6311,-676 561.6311,-676 561.6311,-676 561.6311,-406.1926 561.6311,-406.1926"/>
<polygon fill="#000000" stroke="#000000" points="565.1312,-406.1926 561.6311,-396.1926 558.1312,-406.1927 565.1312,-406.1926"/>
</g>
<!-- minitwit&#45;&gt;github.com/jinzhu/inflection -->
<g id="edge89" class="edge">
<title>minitwit-&gt;github.com/jinzhu/inflection</title>
<path fill="none" stroke="#000000" stroke-dasharray="5,2" d="M1739.3061,-647.5782C1739.3061,-638.7209 1739.3061,-630 1739.3061,-630 1739.3061,-630 3356.1466,-630 3356.1466,-630 3356.1466,-630 3356.1466,-478.2499 3356.1466,-478.2499"/>
<polygon fill="#000000" stroke="#000000" points="3359.6467,-478.2499 3356.1466,-468.2499 3352.6467,-478.25 3359.6467,-478.2499"/>
</g>
<!-- minitwit&#45;&gt;github.com/jinzhu/now -->
<g id="edge90" class="edge">
<title>minitwit-&gt;github.com/jinzhu/now</title>
<path fill="none" stroke="#000000" stroke-dasharray="5,2" d="M1753.4062,-647.8777C1753.4062,-645.0271 1753.4062,-643 1753.4062,-643 1753.4062,-643 3512.1445,-643 3512.1445,-643 3512.1445,-643 3512.1445,-478.157 3512.1445,-478.157"/>
<polygon fill="#000000" stroke="#000000" points="3515.6446,-478.1569 3512.1445,-468.157 3508.6446,-478.157 3515.6446,-478.1569"/>
</g>
<!-- minitwit&#45;&gt;github.com/kelseyhightower/envconfig -->
<g id="edge91" class="edge">
<title>minitwit-&gt;github.com/kelseyhightower/envconfig</title>
<path fill="none" stroke="#000000" d="M1711.106,-647.8314C1711.106,-647.8314 1711.106,-622.4133 1711.106,-622.4133"/>
<polygon fill="#000000" stroke="#000000" points="1714.6061,-622.4132 1711.106,-612.4133 1707.6061,-622.4133 1714.6061,-622.4132"/>
</g>
<!-- minitwit&#45;&gt;github.com/konsorten/go&#45;windows&#45;terminal&#45;sequences -->
<g id="edge92" class="edge">
<title>minitwit-&gt;github.com/konsorten/go-windows-terminal-sequences</title>
<path fill="none" stroke="#000000" stroke-dasharray="5,2" d="M1696.8255,-668C1539.5233,-668 854.087,-668 854.087,-668 854.087,-668 854.087,-90 854.087,-90 854.087,-90 857.2889,-90 857.2889,-90"/>
<polygon fill="#000000" stroke="#000000" points="857.2889,-93.5001 867.2889,-90 857.2888,-86.5001 857.2889,-93.5001"/>
</g>
<!-- minitwit&#45;&gt;github.com/leodido/go&#45;urn -->
<g id="edge93" class="edge">
<title>minitwit-&gt;github.com/leodido/go-urn</title>
<path fill="none" stroke="#000000" stroke-dasharray="5,2" d="M1760.8031,-672C1892.4572,-672 2384.4785,-672 2384.4785,-672 2384.4785,-672 2384.4785,-406.391 2384.4785,-406.391"/>
<polygon fill="#000000" stroke="#000000" points="2387.9786,-406.391 2384.4785,-396.391 2380.9786,-406.3911 2387.9786,-406.391"/>
</g>
<!-- minitwit&#45;&gt;github.com/mattn/go&#45;isatty -->
<g id="edge94" class="edge">
<title>minitwit-&gt;github.com/mattn/go-isatty</title>
<path fill="none" stroke="#000000" stroke-dasharray="5,2" d="M1696.8344,-654C1586.9655,-654 1230.9345,-654 1230.9345,-654 1230.9345,-654 1230.9345,-478.1036 1230.9345,-478.1036"/>
<polygon fill="#000000" stroke="#000000" points="1234.4345,-478.1036 1230.9345,-468.1036 1227.4345,-478.1037 1234.4345,-478.1036"/>
</g>
<!-- minitwit&#45;&gt;github.com/mattn/go&#45;sqlite3 -->
<g id="edge95" class="edge">
<title>minitwit-&gt;github.com/mattn/go-sqlite3</title>
<path fill="none" stroke="#000000" stroke-dasharray="5,2" d="M1725.2061,-647.9561C1725.2061,-635.4367 1725.2061,-621 1725.2061,-621 1725.2061,-621 3191.0996,-621 3191.0996,-621 3191.0996,-621 3191.0996,-550.1581 3191.0996,-550.1581"/>
<polygon fill="#000000" stroke="#000000" points="3194.5997,-550.1581 3191.0996,-540.1581 3187.5997,-550.1582 3194.5997,-550.1581"/>
</g>
<!-- minitwit&#45;&gt;github.com/matttproud/golang_protobuf_extensions -->
<g id="edge96" class="edge">
<title>minitwit-&gt;github.com/matttproud/golang_protobuf_extensions</title>
<path fill="none" stroke="#000000" stroke-dasharray="5,2" d="M1760.7444,-682C1967.5111,-682 3105.8395,-682 3105.8395,-682 3105.8395,-682 3105.8395,-262.117 3105.8395,-262.117"/>
<polygon fill="#000000" stroke="#000000" points="3109.3395,-262.117 3105.8395,-252.117 3102.3395,-262.117 3109.3395,-262.117"/>
</g>
<!-- minitwit&#45;&gt;github.com/noirbizarre/gonja -->
<g id="edge97" class="edge">
<title>minitwit-&gt;github.com/noirbizarre/gonja</title>
<path fill="none" stroke="#000000" d="M1696.7906,-664C1551.8118,-664 962.6915,-664 962.6915,-664 962.6915,-664 962.6915,-334.2455 962.6915,-334.2455"/>
<polygon fill="#000000" stroke="#000000" points="966.1915,-334.2454 962.6915,-324.2455 959.1915,-334.2455 966.1915,-334.2454"/>
</g>
<!-- minitwit&#45;&gt;github.com/pkg/errors -->
<g id="edge98" class="edge">
<title>minitwit-&gt;github.com/pkg/errors</title>
<path fill="none" stroke="#000000" stroke-dasharray="5,2" d="M1696.924,-656C1582.887,-656 1201.2726,-656 1201.2726,-656 1201.2726,-656 1201.2726,-90 1201.2726,-90 1201.2726,-90 1237.3001,-90 1237.3001,-90"/>
<polygon fill="#000000" stroke="#000000" points="1237.3001,-93.5001 1247.3001,-90 1237.3001,-86.5001 1237.3001,-93.5001"/>
</g>
<!-- minitwit&#45;&gt;github.com/prometheus/client_golang -->
<g id="edge99" class="edge">
<title>minitwit-&gt;github.com/prometheus/client_golang</title>
<path fill="none" stroke="#000000" d="M1760.5722,-676C1926.6264,-676 2685.7311,-676 2685.7311,-676 2685.7311,-676 2685.7311,-550.2706 2685.7311,-550.2706"/>
<polygon fill="#000000" stroke="#000000" points="2689.2312,-550.2705 2685.7311,-540.2706 2682.2312,-550.2706 2689.2312,-550.2705"/>
</g>
<!-- minitwit&#45;&gt;github.com/prometheus/client_model -->
<g id="edge100" class="edge">
<title>minitwit-&gt;github.com/prometheus/client_model</title>
<path fill="none" stroke="#000000" stroke-dasharray="5,2" d="M1760.478,-678C1939.9088,-678 2819.0337,-678 2819.0337,-678 2819.0337,-678 2819.0337,-262.2331 2819.0337,-262.2331"/>
<polygon fill="#000000" stroke="#000000" points="2822.5338,-262.233 2819.0337,-252.2331 2815.5338,-262.2331 2822.5338,-262.233"/>
</g>
<!-- minitwit&#45;&gt;github.com/prometheus/common -->
<g id="edge101" class="edge">
<title>minitwit-&gt;github.com/prometheus/common</title>
<path fill="none" stroke="#000000" stroke-dasharray="5,2" d="M1760.4737,-680C1951.3861,-680 2938.7311,-680 2938.7311,-680 2938.7311,-680 2938.7311,-478.0477 2938.7311,-478.0477"/>
<polygon fill="#000000" stroke="#000000" points="2942.2312,-478.0477 2938.7311,-468.0477 2935.2312,-478.0477 2942.2312,-478.0477"/>
</g>
<!-- minitwit&#45;&gt;github.com/rs/zerolog -->
<g id="edge102" class="edge">
<title>minitwit-&gt;github.com/rs/zerolog</title>
<path fill="none" stroke="#000000" d="M1760.7927,-654C1783.4677,-654 1809.8532,-654 1809.8532,-654 1809.8532,-654 1809.8532,-174 1809.8532,-174 1809.8532,-174 1539.742,-174 1539.742,-174"/>
<polygon fill="#000000" stroke="#000000" points="1539.7421,-170.5001 1529.742,-174 1539.742,-177.5001 1539.7421,-170.5001"/>
</g>
<!-- minitwit&#45;&gt;github.com/sirupsen/logrus -->
<g id="edge103" class="edge">
<title>minitwit-&gt;github.com/sirupsen/logrus</title>
<path fill="none" stroke="#000000" stroke-dasharray="5,2" d="M1696.9913,-666C1544.3413,-666 893.0348,-666 893.0348,-666 893.0348,-666 893.0348,-190.2354 893.0348,-190.2354"/>
<polygon fill="#000000" stroke="#000000" points="896.5349,-190.2353 893.0348,-180.2354 889.5349,-190.2354 896.5349,-190.2353"/>
</g>
<!-- minitwit&#45;&gt;github.com/ugorji/go/codec -->
<g id="edge104" class="edge">
<title>minitwit-&gt;github.com/ugorji/go/codec</title>
<path fill="none" stroke="#000000" stroke-dasharray="5,2" d="M1760.5264,-650C1773.5675,-650 1785.6636,-650 1785.6636,-650 1785.6636,-650 1785.6636,-450 1785.6636,-450 1785.6636,-450 1609.399,-450 1609.399,-450"/>
<polygon fill="#000000" stroke="#000000" points="1609.399,-446.5001 1599.399,-450 1609.399,-453.5001 1609.399,-446.5001"/>
</g>
<!-- minitwit&#45;&gt;golang.org/x/crypto -->
<g id="edge105" class="edge">
<title>minitwit-&gt;golang.org/x/crypto</title>
<path fill="none" stroke="#000000" d="M1760.5503,-656C1787.5545,-656 1821.9479,-656 1821.9479,-656 1821.9479,-656 1821.9479,-118.1908 1821.9479,-118.1908"/>
<polygon fill="#000000" stroke="#000000" points="1825.448,-118.1908 1821.9479,-108.1908 1818.448,-118.1908 1825.448,-118.1908"/>
</g>
<!-- minitwit&#45;&gt;golang.org/x/sys -->
<g id="edge106" class="edge">
<title>minitwit-&gt;golang.org/x/sys</title>
<path fill="none" stroke="#000000" stroke-dasharray="5,2" d="M1696.7772,-658C1582.2135,-658 1198.837,-658 1198.837,-658 1198.837,-658 1198.837,-18 1198.837,-18 1198.837,-18 1351.2795,-18 1351.2795,-18"/>
<polygon fill="#000000" stroke="#000000" points="1351.2796,-21.5001 1361.2795,-18 1351.2795,-14.5001 1351.2796,-21.5001"/>
</g>
<!-- minitwit&#45;&gt;golang.org/x/text -->
<g id="edge107" class="edge">
<title>minitwit-&gt;golang.org/x/text</title>
<path fill="none" stroke="#000000" stroke-dasharray="5,2" d="M1760.7637,-660C1798.7511,-660 1856.9832,-660 1856.9832,-660 1856.9832,-660 1856.9832,-46.1797 1856.9832,-46.1797"/>
<polygon fill="#000000" stroke="#000000" points="1860.4833,-46.1796 1856.9832,-36.1797 1853.4833,-46.1797 1860.4833,-46.1796"/>
</g>
<!-- minitwit&#45;&gt;google.golang.org/protobuf -->
<g id="edge108" class="edge">
<title>minitwit-&gt;google.golang.org/protobuf</title>
<path fill="none" stroke="#000000" stroke-dasharray="5,2" d="M1718.1561,-647.9489C1718.1561,-633.627 1718.1561,-616 1718.1561,-616 1718.1561,-616 1851.5604,-616 1851.5604,-616 1851.5604,-616 1851.5604,-79 1851.5604,-79 1851.5604,-79 2943.3527,-79 2943.3527,-79"/>
<polygon fill="#000000" stroke="#000000" points="2943.3527,-82.5001 2953.3527,-79 2943.3527,-75.5001 2943.3527,-82.5001"/>
</g>
<!-- minitwit&#45;&gt;gopkg.in/yaml.v2 -->
<g id="edge109" class="edge">
<title>minitwit-&gt;gopkg.in/yaml.v2</title>
<path fill="none" stroke="#000000" d="M1760.8198,-652C1778.8458,-652 1797.7584,-652 1797.7584,-652 1797.7584,-652 1797.7584,-240 1797.7584,-240 1797.7584,-240 1780.3872,-240 1780.3872,-240"/>
<polygon fill="#000000" stroke="#000000" points="1780.3872,-236.5001 1770.3872,-240 1780.3871,-243.5001 1780.3872,-236.5001"/>
</g>
<!-- minitwit&#45;&gt;gorm.io/driver/postgres -->
<g id="edge110" class="edge">
<title>minitwit-&gt;gorm.io/driver/postgres</title>
<path fill="none" stroke="#000000" d="M1760.6194,-664C1820.0392,-664 1941.7311,-664 1941.7311,-664 1941.7311,-664 1941.7311,-622.0267 1941.7311,-622.0267"/>
<polygon fill="#000000" stroke="#000000" points="1945.2312,-622.0267 1941.7311,-612.0267 1938.2312,-622.0268 1945.2312,-622.0267"/>
</g>
<!-- minitwit&#45;&gt;gorm.io/driver/sqlite -->
<g id="edge111" class="edge">
<title>minitwit-&gt;gorm.io/driver/sqlite</title>
<path fill="none" stroke="#000000" d="M1732.2561,-647.8975C1732.2561,-636.9141 1732.2561,-625 1732.2561,-625 1732.2561,-625 3275.7311,-625 3275.7311,-625 3275.7311,-625 3275.7311,-622.0328 3275.7311,-622.0328"/>
<polygon fill="#000000" stroke="#000000" points="3279.2312,-622.0328 3275.7311,-612.0328 3272.2312,-622.0329 3279.2312,-622.0328"/>
</g>
<!-- minitwit&#45;&gt;gorm.io/gorm -->
<g id="edge112" class="edge">
<title>minitwit-&gt;gorm.io/gorm</title>
<path fill="none" stroke="#000000" d="M1746.3562,-647.7566C1746.3562,-640.5703 1746.3562,-634 1746.3562,-634 1746.3562,-634 3435.077,-634 3435.077,-634 3435.077,-634 3435.077,-550.4945 3435.077,-550.4945"/>
<polygon fill="#000000" stroke="#000000" points="3438.5771,-550.4945 3435.077,-540.4945 3431.5771,-550.4946 3438.5771,-550.4945"/>
</g>
</g>
</svg>